<?xml version="1.0" encoding="UTF-8"?>
<svg xmlns="http://www.w3.org/2000/svg" viewBox="0 0 24 24" width="24" height="24" fill="none" stroke="#404040" stroke-width="1.5" stroke-linecap="round" stroke-linejoin="round">
  <!-- Refresh arrows (circular) -->
  <path d="M1.5 12C1.5 6.20101 6.20101 1.5 12 1.5C15.5533 1.5 18.7013 3.21267 20.6455 5.875"/>
  <path d="M22.5 12C22.5 17.799 17.799 22.5 12 22.5C8.44675 22.5 5.29875 20.7873 3.3545 18.125"/>
  <polyline points="20.5,2 20.5,6 16.5,6"/>
  <polyline points="3.5,22 3.5,18 7.5,18"/>
  <!-- Small image frame -->
  <rect x="7.5" y="9" width="9" height="7" rx="1"/>
  <circle cx="10" cy="11.5" r="1"/>
  <polyline points="7.5,14.5 10,12 12.5,14 14.5,12.5 16.5,14.5"/>
</svg>
