<svg version="1.1" xmlns="http://www.w3.org/2000/svg" viewBox="0 0 1024 1024" width="1024" height="1024"><path d="M183.50,0.95 C185.82,0.99 186.50,0.78 186.50,-0.00 L837.50,-0.00 C837.50,0.79 838.25,1.00 841.00,1.00 C845.94,0.61 850.79,1.37 853.75,2.17 L856.98,3.11 C884.32,6.66 909.35,18.45 929.75,31.10 C955.77,47.80 978.33,71.03 994.46,97.75 C1007.35,119.45 1018.34,144.30 1022.00,174.94 C1021.85,176.93 1022.15,179.30 1022.95,180.25 L1023.00,183.50 C1023.00,185.82 1023.23,186.50 1024.00,186.50 L1024.00,837.50 C1023.23,837.50 1023.00,838.06 1023.00,840.00 C1023.45,844.80 1021.78,848.50 1021.95,852.34 C1021.20,852.30 1020.32,854.81 1021.51,855.25 C1010.89,911.83 981.08,955.21 942.75,983.98 C915.93,1003.43 885.03,1019.63 842.00,1023.00 C840.06,1023.00 839.50,1023.23 839.50,1024.00 L185.50,1024.00 C185.50,1023.23 184.81,1023.00 182.44,1023.00 L178.25,1022.91 L174.25,1022.58 C115.05,1013.37 74.69,984.91 43.80,947.25 C25.38,923.52 8.95,893.30 3.00,856.06 C3.00,853.73 2.80,852.93 2.13,852.48 C1.72,848.41 0.51,844.37 1.00,839.56 C1.00,837.18 0.78,836.50 -0.00,836.50 L-0.00,187.50 C0.78,187.50 1.01,186.81 1.03,184.43 C1.43,180.03 1.29,176.23 2.04,172.75 C2.69,172.17 3.28,170.48 2.95,169.00 C4.27,155.84 8.30,144.56 12.03,133.75 C26.14,94.91 51.10,63.27 81.75,39.91 C104.10,23.01 132.02,8.45 167.00,3.00 C168.89,3.00 169.58,2.78 170.04,2.03 C174.56,2.05 178.30,0.38 183.50,0.95 Z" fill="#1675FB" fill-rule="nonzero"/><g><path d="M93.25,385.57 L268.25,385.52 L272.58,387.49 C308.93,422.12 344.30,459.62 380.01,494.93 L379.75,813.75 C375.77,826.83 366.35,836.23 351.75,837.51 L93.75,837.25 C80.21,833.71 71.42,824.85 68.99,811.20 L69.25,408.75 C72.82,396.40 80.54,388.33 93.25,385.57 Z" fill="#FEFDFD" fill-rule="nonzero"/><path d="M184.75,615.52 L292.75,615.51 C303.03,617.19 303.03,630.81 292.75,632.49 L185.15,632.50 C175.24,630.72 175.18,617.74 184.75,615.52 Z" fill="#212062" fill-rule="nonzero"/><path d="M227.25,676.50 L319.79,676.50 C329.19,678.67 328.79,691.78 319.25,693.05 L225.57,692.75 C217.92,688.86 219.04,678.72 227.25,676.50 Z" fill="#212062" fill-rule="nonzero"/><path d="M250.68,539.07 C258.61,541.81 258.13,553.44 249.25,555.48 L165.25,555.48 C155.62,554.90 153.78,543.29 161.75,539.25 C188.83,537.48 221.48,539.21 250.68,539.07 Z" fill="#212062" fill-rule="nonzero"/><path d="M181.23,756.50 L268.85,756.50 C276.41,759.61 276.41,769.39 268.85,772.50 L181.75,772.48 C174.02,770.04 174.05,759.52 181.23,756.50 Z" fill="#212062" fill-rule="nonzero"/><path d="M120.25,469.55 C121.87,469.20 157.92,469.57 158.43,469.75 C164.96,472.03 165.41,483.71 158.25,485.50 C158.03,485.55 121.37,485.79 119.95,485.50 C112.27,483.94 112.06,471.30 120.25,469.55 Z" fill="#212062" fill-rule="nonzero"/><path d="M130.75,750.09 C132.30,749.80 154.74,749.69 156.29,750.00 C165.33,751.80 164.86,764.63 157.35,766.50 C157.33,766.50 130.26,766.66 129.45,766.50 C121.90,764.97 120.92,751.88 130.75,750.09 Z" fill="#212062" fill-rule="nonzero"/><path d="M129.15,609.00 C129.46,608.92 157.54,608.92 157.85,609.00 C164.90,610.75 165.09,623.72 156.25,625.48 C155.24,625.68 133.46,625.81 131.37,625.50 C121.26,624.00 121.73,610.85 129.15,609.00 Z" fill="#212062" fill-rule="nonzero"/><path d="M130.62,557.08 C135.64,568.80 116.62,573.49 114.50,562.75 C112.27,551.47 127.01,548.64 130.62,557.08 Z" fill="#212062" fill-rule="nonzero"/><path d="M121.75,525.58 C132.40,524.25 134.56,541.10 124.28,542.61 C112.71,544.30 110.75,526.96 121.75,525.58 Z" fill="#212062" fill-rule="nonzero"/><path d="M188.34,692.82 C202.51,701.86 184.50,717.79 176.88,703.52 C174.71,696.54 181.81,690.49 188.34,692.82 Z" fill="#212062" fill-rule="nonzero"/><path d="M193.48,672.75 C195.29,684.08 178.12,685.91 176.50,675.79 C174.70,664.58 191.83,662.47 193.48,672.75 Z" fill="#212062" fill-rule="nonzero"/></g><g><path d="M613.54,624.99 C627.26,765.53 816.15,765.18 830.37,625.48 L887.04,625.48 C899.07,627.63 906.51,634.97 909.47,646.25 L909.49,841.25 C906.83,855.39 898.13,864.55 884.27,867.50 L555.22,867.50 C542.25,864.26 533.40,855.78 530.75,842.75 L530.50,647.05 C531.78,636.71 540.67,628.17 550.25,625.92 C558.15,624.06 600.31,625.19 613.54,624.99 Z" fill="#13B2A1" fill-rule="nonzero"/><path d="M667.75,748.52 L811.34,748.50 C820.39,750.84 820.01,763.98 811.03,766.00 L667.75,765.98 C659.09,763.31 659.25,751.16 667.75,748.52 Z" fill="#FEFDFD" fill-rule="nonzero"/><path d="M668.25,792.50 L771.68,792.50 C779.74,794.51 781.37,805.54 773.25,809.75 L668.75,810.05 C659.17,808.89 658.65,794.88 668.25,792.50 Z" fill="#FEFDFD" fill-rule="nonzero"/><path d="M636.53,792.05 C647.22,797.30 640.60,816.23 627.25,810.36 C615.50,805.20 623.97,785.90 636.53,792.05 Z" fill="#FEFDFD" fill-rule="nonzero"/><path d="M642.13,756.40 C641.59,770.92 621.97,770.51 621.42,756.66 C623.35,743.75 640.11,744.16 642.13,756.40 Z" fill="#FEFDFD" fill-rule="nonzero"/></g><g><path d="M613.42,615.53 L520.75,615.41 C505.53,611.07 495.88,601.96 492.51,586.25 L492.50,403.16 C495.93,386.02 507.32,375.12 525.75,373.06 L689.25,373.25 C706.08,377.27 716.57,387.64 719.00,405.75 L719.00,506.03 C659.33,508.01 615.42,555.59 613.42,615.53 Z" fill="#212062" fill-rule="nonzero"/><path d="M571.25,424.57 C572.98,424.32 678.98,424.09 682.45,424.50 C698.01,426.33 695.20,443.00 685.25,444.98 L569.12,445.00 C557.97,441.48 558.60,426.40 571.25,424.57 Z" fill="#FEFDFD" fill-rule="nonzero"/><path d="M567.65,472.50 L633.55,472.50 C642.84,476.06 643.08,488.57 633.33,492.25 L570.96,492.53 C559.55,491.20 558.07,477.15 567.65,472.50 Z" fill="#FEFDFD" fill-rule="nonzero"/><path d="M569.21,519.50 C570.03,519.34 611.97,519.34 612.79,519.50 C622.84,521.50 623.29,537.52 612.88,539.50 C611.61,539.74 570.05,539.64 569.25,539.48 C558.67,537.37 558.99,521.54 569.21,519.50 Z" fill="#FEFDFD" fill-rule="nonzero"/><path d="M542.09,441.25 C533.52,452.42 517.29,439.33 525.41,428.75 C534.06,417.48 550.09,430.83 542.09,441.25 Z" fill="#FEFDFD" fill-rule="nonzero"/><path d="M542.13,476.25 C550.00,486.74 534.28,498.79 525.76,489.21 C516.59,478.90 533.26,464.43 542.13,476.25 Z" fill="#FEFDFD" fill-rule="nonzero"/><path d="M539.75,538.16 C530.53,544.91 517.99,532.30 525.40,523.25 C535.39,511.05 552.53,528.80 539.75,538.16 Z" fill="#FEFDFD" fill-rule="nonzero"/></g><g><path d="M830.58,616.03 C827.26,553.61 786.84,512.09 728.64,505.75 L728.17,503.75 L728.16,437.00 L728.15,435.75 L728.35,407.75 C728.96,388.73 742.82,374.73 761.25,373.02 L919.75,373.08 C938.12,374.95 948.79,386.10 952.47,402.75 L952.50,586.34 C949.59,602.46 939.99,611.14 925.25,615.92 L830.58,616.03 Z" fill="#FE9400" fill-rule="nonzero"/><path d="M803.25,474.54 L924.43,474.50 C934.43,477.19 933.76,490.80 923.25,492.04 L802.17,491.75 C794.45,487.90 795.15,477.14 803.25,474.54 Z" fill="#FEFDFD" fill-rule="nonzero"/><path d="M805.25,427.61 C807.60,427.25 896.91,427.16 899.25,427.51 C911.29,429.30 909.80,443.39 901.75,444.88 C868.48,445.51 835.53,445.56 802.41,444.84 C794.22,441.09 794.47,429.24 805.25,427.61 Z" fill="#FEFDFD" fill-rule="nonzero"/><path d="M822.75,524.52 L875.54,524.50 C885.13,527.57 884.78,539.43 875.03,542.00 L823.21,542.00 C814.09,539.80 814.03,527.22 822.75,524.52 Z" fill="#FEFDFD" fill-rule="nonzero"/><path d="M773.25,473.06 C785.07,476.30 780.34,496.71 766.65,492.68 C755.20,489.31 759.10,469.18 773.25,473.06 Z" fill="#FEFDFD" fill-rule="nonzero"/><path d="M780.00,433.71 C782.93,449.48 758.04,450.46 759.87,434.47 C761.11,423.72 778.07,423.34 780.00,433.71 Z" fill="#FEFDFD" fill-rule="nonzero"/><g><path d="M728.64,505.75 C786.84,512.09 827.26,553.61 830.58,616.03 L830.37,625.48 C816.15,765.18 627.26,765.53 613.54,624.99 L613.42,615.53 C615.42,555.59 659.33,508.01 719.00,506.03 L728.64,505.75 Z" fill="#FEFDFD" fill-rule="nonzero"/><path d="M671.75,555.42 C695.57,562.27 711.49,577.40 721.01,598.50 L721.41,598.50 C729.95,580.75 745.73,563.25 765.57,557.00 C790.21,549.24 788.04,569.27 780.51,572.96 C746.92,580.83 730.54,607.73 732.89,651.50 L747.75,651.50 C750.41,652.70 753.92,655.68 753.00,659.86 C752.79,660.80 731.95,686.85 730.25,688.86 C727.07,692.61 724.03,699.00 717.31,694.75 C716.14,694.01 690.31,661.41 690.04,660.25 C686.84,647.00 707.93,653.07 709.75,651.25 C712.75,609.17 695.39,580.08 662.58,573.13 C653.86,568.86 654.78,552.45 671.75,555.42 Z" fill="#212062" fill-rule="nonzero"/></g></g><path d="M518.50,117.49 L571.10,117.75 L612.76,220.74 L614.41,221.06 C627.93,186.34 642.28,151.78 656.18,117.50 L708.50,117.50 L708.25,283.25 C696.65,283.66 680.35,283.66 668.75,283.25 C668.11,252.75 668.66,215.69 668.74,186.75 C668.17,185.78 668.59,185.61 667.81,186.25 L628.10,283.25 L599.11,283.51 L558.75,185.25 L558.25,283.25 L518.50,283.51 L518.50,117.49 Z" fill="#FEFDFD" fill-rule="nonzero"/><g><path d="M391.14,117.49 L443.13,117.75 C462.12,172.60 481.78,228.07 500.50,283.51 L457.81,283.25 L447.22,251.25 L386.13,250.99 C385.66,251.27 375.55,283.30 375.27,283.50 L333.00,283.50 C351.67,227.50 371.75,172.58 391.14,117.49 Z" fill="#FEFDFD" fill-rule="nonzero"/><path d="M416.56,158.50 L416.93,158.50 C423.17,178.22 430.15,197.71 436.00,218.00 L396.93,218.00 C398.73,212.56 416.01,158.85 416.56,158.50 Z" fill="#1675FB" fill-rule="nonzero"/></g><path d="M184.50,117.50 L229.25,117.53 C229.27,117.54 262.37,179.40 262.59,179.50 C262.59,179.50 263.43,179.50 263.43,179.50 C263.70,179.37 296.44,117.68 296.74,117.50 L341.50,117.50 C322.45,151.63 302.64,184.81 283.25,218.75 L282.98,283.50 L243.00,283.50 L243.00,219.50 L184.50,118.78 L184.50,117.50 Z" fill="#FEFDFD" fill-rule="nonzero"/><path d="M739.00,117.50 L780.00,117.50 L780.25,250.75 L850.25,251.25 C850.64,251.64 850.64,282.86 850.25,283.25 L739.00,283.50 L739.00,117.50 Z" fill="#FEFDFD" fill-rule="nonzero"/><path d="M463.00,583.00 L464.36,583.00 L512.53,627.67 C509.35,631.31 463.91,673.00 463.91,673.00 C463.91,673.00 463.01,672.46 463.00,672.44 C462.82,671.99 463.12,646.63 463.00,646.51 L393.25,646.25 C392.84,635.31 392.84,619.69 393.25,608.75 C398.22,608.12 462.72,608.77 463.00,608.49 L463.00,583.00 Z" fill="#FEFDFD" fill-rule="nonzero"/><path d="M728.17,503.75 L728.16,437.00 L728.17,503.75 Z" fill="#FEFDFD" fill-rule="nonzero"/><path d="M728.35,407.75 L728.15,435.75 L728.35,407.75 Z" fill="#FEFDFD" fill-rule="nonzero"/><path d="M1022.95,180.25 C1022.15,179.30 1021.85,176.93 1022.00,174.94 C1022.77,175.42 1022.99,176.61 1022.95,180.25 Z" fill="#FEFDFD" fill-rule="nonzero"/><path d="M2.95,169.00 C3.28,170.48 2.69,172.17 2.04,172.75 C2.01,169.84 2.21,169.00 2.95,169.00 Z" fill="#FEFDFD" fill-rule="nonzero"/><path d="M3.00,856.06 C1.78,856.17 1.85,853.46 2.13,852.48 C2.80,852.93 3.00,853.73 3.00,856.06 Z" fill="#FEFDFD" fill-rule="nonzero"/><path d="M170.04,2.03 C169.58,2.78 168.89,3.00 167.00,3.00 C167.00,2.23 167.68,2.01 170.04,2.03 Z" fill="#FEFDFD" fill-rule="nonzero"/><path d="M856.98,3.11 L853.75,2.17 C856.28,2.04 857.00,2.24 856.98,3.11 Z" fill="#FEFDFD" fill-rule="nonzero"/><path d="M1021.95,852.34 L1021.51,855.25 C1020.32,854.81 1021.20,852.30 1021.95,852.34 Z" fill="#FEFDFD" fill-rule="nonzero"/><path d="M178.25,1022.91 L174.25,1022.58 L178.25,1022.91 Z" fill="#FEFDFD" fill-rule="nonzero"/><path d="M837.50,-0.00 L841.00,-0.00 L841.00,1.00 C838.25,1.00 837.50,0.79 837.50,-0.00 Z" fill="#FEFDFD" fill-rule="nonzero"/><path d="M183.50,0.95 L183.50,-0.00 L186.50,-0.00 C186.50,0.78 185.82,0.99 183.50,0.95 Z" fill="#FEFDFD" fill-rule="nonzero"/><path d="M1024.00,183.50 L1024.00,186.50 C1023.23,186.50 1023.00,185.82 1023.00,183.50 L1024.00,183.50 Z" fill="#FEFDFD" fill-rule="nonzero"/><path d="M1.03,184.43 C1.01,186.81 0.78,187.50 -0.00,187.50 L-0.00,185.06 L1.03,184.43 Z" fill="#FEFDFD" fill-rule="nonzero"/><path d="M0.00,838.94 L-0.00,836.50 C0.78,836.50 1.00,837.18 1.00,839.56 L0.00,838.94 Z" fill="#FEFDFD" fill-rule="nonzero"/><path d="M185.50,1024.00 L183.06,1024.00 L182.44,1023.00 C184.81,1023.00 185.50,1023.23 185.50,1024.00 Z" fill="#FEFDFD" fill-rule="nonzero"/><path d="M1023.00,840.00 C1023.00,838.06 1023.23,837.50 1024.00,837.50 L1024.00,840.00 L1023.00,840.00 Z" fill="#FEFDFD" fill-rule="nonzero"/><path d="M842.00,1023.00 L842.00,1024.00 L839.50,1024.00 C839.50,1023.23 840.06,1023.00 842.00,1023.00 Z" fill="#FEFDFD" fill-rule="nonzero"/></svg>
