<svg version="1.1" xmlns="http://www.w3.org/2000/svg" viewBox="0 0 1024 1024" width="1024" height="1024"><path d="M170.94,1.00 C173.74,1.00 174.50,0.79 174.50,-0.00 L848.94,0.00 C849.42,0.78 850.23,1.00 852.56,1.00 L859.00,0.97 C858.35,2.71 861.09,2.04 861.25,1.52 C933.43,12.18 989.40,62.77 1011.95,122.75 C1017.12,136.71 1021.83,151.76 1023.11,169.49 C1022.88,170.50 1022.77,173.16 1024.00,173.06 L1024.00,851.50 C1023.23,851.50 1023.00,852.06 1023.00,854.00 C1022.47,866.40 1019.68,877.98 1016.94,887.25 C999.07,948.61 950.36,997.56 890.25,1016.05 C879.21,1019.04 868.24,1022.94 854.00,1023.00 C852.06,1023.00 851.50,1023.23 851.50,1024.00 L173.00,1024.00 C173.00,1023.22 172.33,1023.00 170.00,1023.00 C96.00,1016.04 40.48,966.46 15.96,911.25 C7.29,894.35 3.92,873.69 -0.00,851.80 L-0.00,174.50 C0.78,174.50 1.00,173.82 1.00,171.50 L1.00,167.06 C1.77,166.58 2.00,165.67 2.00,163.00 C10.82,99.18 45.93,58.08 88.26,29.21 C98.60,22.64 110.88,16.40 122.25,12.06 C136.74,6.86 152.38,1.82 170.94,1.00 Z" fill="#1E79FC" fill-rule="nonzero"/><g><path d="M877.03,406.72 C898.79,475.66 892.77,553.04 866.33,613.25 C799.92,759.02 612.99,840.66 393.25,796.41 C388.32,796.26 383.63,798.90 380.75,800.45 C339.95,827.47 296.95,854.37 244.25,868.41 C230.70,871.28 218.72,860.80 220.40,847.06 C232.64,810.44 241.12,767.82 240.44,719.25 C172.96,663.52 118.54,572.73 137.57,443.75 C164.53,292.56 299.93,187.29 461.75,170.54 C671.96,148.77 830.04,257.87 877.03,406.72 Z" fill="#FEFEFE" fill-rule="nonzero"/><path d="M542.50,335.23 L542.50,454.50 L658.75,454.52 C700.79,458.18 703.89,513.91 664.75,523.75 L542.75,524.25 L542.25,642.75 C532.04,679.53 481.17,677.57 474.50,639.34 L474.50,524.03 L351.75,523.74 C312.50,514.19 315.44,458.91 356.75,454.53 L474.50,454.50 L474.50,336.66 C481.18,297.30 534.58,296.07 542.50,335.23 Z" fill="#1E79FC" fill-rule="nonzero"/></g><path d="M2.00,163.00 C2.00,165.67 1.77,166.58 1.00,167.06 C1.00,163.91 1.23,163.00 2.00,163.00 Z" fill="#FEFEFE" fill-rule="nonzero"/><path d="M861.25,1.52 C861.09,2.04 858.35,2.71 859.00,0.97 L861.25,1.52 Z" fill="#FEFEFE" fill-rule="nonzero"/><path d="M170.94,1.00 L171.56,0.00 L174.50,-0.00 C174.50,0.79 173.74,1.00 170.94,1.00 Z" fill="#FEFEFE" fill-rule="nonzero"/><path d="M848.94,0.00 L851.94,0.00 L852.56,1.00 C850.23,1.00 849.42,0.78 848.94,0.00 Z" fill="#FEFEFE" fill-rule="nonzero"/><path d="M1024.00,170.06 L1024.00,173.06 C1022.77,173.16 1022.88,170.50 1023.11,169.49 L1024.00,170.06 Z" fill="#FEFEFE" fill-rule="nonzero"/><path d="M1.00,171.50 C1.00,173.82 0.78,174.50 -0.00,174.50 L-0.00,171.50 L1.00,171.50 Z" fill="#FEFEFE" fill-rule="nonzero"/><path d="M173.00,1024.00 L170.00,1024.00 L170.00,1023.00 C172.33,1023.00 173.00,1023.22 173.00,1024.00 Z" fill="#FEFEFE" fill-rule="nonzero"/><path d="M1023.00,854.00 C1023.00,852.06 1023.23,851.50 1024.00,851.50 L1024.00,854.00 L1023.00,854.00 Z" fill="#FEFEFE" fill-rule="nonzero"/><path d="M854.00,1023.00 L854.00,1024.00 L851.50,1024.00 C851.50,1023.23 852.06,1023.00 854.00,1023.00 Z" fill="#FEFEFE" fill-rule="nonzero"/></svg>
