<svg version="1.1" xmlns="http://www.w3.org/2000/svg" viewBox="0 0 1024 1024" width="1024" height="1024"><path d="M555.50,207.50 L690.25,207.50 C744.48,214.86 775.03,246.59 785.63,298.25 C785.47,339.05 785.27,388.69 785.75,429.75 C785.26,459.84 785.51,496.23 785.59,525.25 C777.18,567.09 755.10,595.62 727.63,616.79 C711.45,627.78 694.47,638.18 679.46,650.25 L679.46,651.42 C663.34,662.54 649.07,678.42 636.63,692.25 C611.05,718.96 592.22,753.03 546.19,758.52 L338.75,758.25 C293.41,749.17 262.30,719.28 256.49,670.97 L256.49,580.68 L256.54,301.75 C267.02,243.86 304.65,212.27 367.75,207.50 L555.50,207.50 Z" fill="#FEFDFD" fill-rule="nonzero"/><path d="M466.25,318.88 L409.95,365.66 L410.25,367.67 L468.02,414.63 C481.95,434.16 461.81,459.46 439.96,446.47 L362.25,384.05 C353.10,373.51 353.84,359.30 363.04,349.54 C364.60,347.88 438.28,286.33 439.75,285.41 C461.63,271.66 483.67,300.41 466.25,318.88 Z" fill="#1877E9" fill-rule="nonzero"/><path d="M599.31,285.43 C601.87,286.98 674.21,345.70 676.40,347.98 C686.11,358.07 687.76,373.80 677.39,384.71 L603.90,444.75 C581.43,462.68 555.49,433.97 575.25,413.13 L631.55,367.33 L631.25,365.30 L573.67,319.08 C555.56,300.66 577.12,271.92 599.31,285.43 Z" fill="#8E4AE0" fill-rule="nonzero"/><path d="M337.25,559.64 C419.94,559.48 508.47,559.26 590.25,559.75 C604.73,564.73 605.40,583.87 591.25,589.75 L333.25,590.01 C315.71,587.01 316.18,559.62 337.25,559.64 Z" fill="#8E4AE0" fill-rule="nonzero"/><g><path d="M520.25,525.85 C504.29,525.25 484.29,525.30 468.07,525.82 C467.28,514.95 466.84,505.21 467.58,494.00 L671.75,494.00 C686.92,498.73 687.80,519.81 672.92,525.79 C624.17,526.17 569.56,526.07 520.25,525.85 Z" fill="#8E4AE0" fill-rule="nonzero"/><path d="M467.58,494.00 C466.84,505.21 467.28,514.95 468.07,525.82 C484.29,525.30 504.29,525.25 520.25,525.85 L332.25,525.81 C316.35,521.05 316.80,497.98 332.75,494.00 L467.58,494.00 Z" fill="#1877E9" fill-rule="nonzero"/></g><path d="M332.75,622.55 L491.82,622.50 C508.40,626.48 508.71,650.57 491.82,654.50 L333.68,654.50 C316.34,651.27 316.13,626.68 332.75,622.55 Z" fill="#1877E9" fill-rule="nonzero"/><g><path d="M536.25,11.15 L541.09,12.08 L542.25,12.08 L546.08,13.09 L547.75,13.09 L550.97,14.10 L551.94,14.00 C552.42,14.78 553.01,15.00 554.56,15.00 L555.75,15.08 L557.96,16.10 L558.75,16.08 L560.99,17.02 L566.75,19.06 L568.96,20.10 L569.50,20.00 L569.78,20.25 C583.55,26.04 596.13,34.80 604.75,44.37 L604.39,56.25 L604.16,60.25 C601.39,104.12 578.56,129.37 563.63,159.75 C557.68,172.50 556.09,189.47 555.50,207.50 L367.75,207.50 C304.65,212.27 267.02,243.86 256.54,301.75 L256.49,580.68 C235.34,576.24 209.03,580.35 194.67,587.54 C170.52,611.70 162.91,655.64 112.25,652.62 C94.17,650.88 80.87,644.39 69.00,636.50 C37.17,612.01 15.03,572.96 7.42,526.75 C8.89,526.23 7.37,524.18 6.99,523.75 L7.09,520.99 L6.11,514.75 L6.05,512.08 L5.10,500.25 L5.09,483.75 L6.04,476.00 L6.00,472.50 L6.07,468.75 C6.82,467.48 7.15,464.73 7.00,462.44 L7.01,459.75 C7.92,459.12 8.15,457.14 8.00,455.44 L8.10,453.25 L9.07,448.93 C8.19,446.23 10.40,444.98 10.05,442.54 C10.79,442.08 11.00,441.49 11.00,439.94 L10.90,438.07 C12.15,438.13 12.22,435.97 11.85,434.75 C20.20,401.44 36.53,374.14 61.75,356.81 C70.90,349.86 65.03,357.28 66.00,340.06 L66.00,327.44 L66.11,322.75 L67.08,313.90 L67.09,311.75 L68.08,307.02 L68.00,304.06 C69.06,304.19 69.24,301.86 68.86,300.97 C80.56,239.02 112.06,195.58 153.25,162.93 C169.36,150.63 189.41,138.63 212.94,133.00 C214.49,133.00 215.08,132.78 215.56,132.00 L216.94,132.00 C218.49,132.00 219.08,131.77 219.55,131.00 C232.88,108.85 252.44,89.78 273.28,76.25 C289.55,65.51 307.98,56.56 328.94,51.00 C330.49,51.00 331.08,50.79 331.55,50.05 C331.74,50.46 334.18,49.18 333.27,49.60 C335.50,48.88 338.01,47.68 340.94,48.00 C342.49,48.00 343.08,47.77 343.56,47.00 L344.91,47.10 L349.25,46.10 L350.92,46.07 L355.25,45.08 L356.94,45.00 C359.07,45.15 361.57,44.73 362.75,44.07 L366.44,44.00 L368.95,43.99 L377.75,43.09 L388.25,43.11 L394.75,43.34 L405.25,44.05 C406.34,44.91 408.54,45.25 410.02,44.46 C410.82,45.30 414.68,45.12 416.11,44.77 C431.60,33.82 450.42,22.70 471.94,17.00 C473.49,17.00 474.09,16.79 474.58,16.09 C476.08,16.23 476.85,14.33 478.94,15.00 C480.88,15.00 481.58,14.78 482.06,14.03 C483.40,13.78 485.93,12.39 487.91,13.10 L492.25,12.10 L493.91,12.08 L498.75,11.09 L501.00,11.00 C503.64,11.14 506.21,10.70 507.75,10.08 C515.73,10.41 529.87,8.90 536.25,11.15 Z" fill="#8E4AE0" fill-rule="nonzero"/><g><path d="M672.25,37.05 C673.42,37.37 677.21,38.57 678.25,37.55 L683.25,38.02 C684.04,38.81 685.59,39.45 686.73,38.36 C757.76,49.89 804.86,89.68 829.96,147.62 C872.28,155.37 904.34,174.93 926.75,203.03 C944.31,224.45 959.88,252.97 961.37,290.25 L961.40,298.25 L960.93,306.25 C960.28,307.13 959.82,309.22 960.00,311.06 L959.91,313.75 L958.90,317.07 C959.02,321.14 957.71,327.23 955.79,329.32 C983.35,351.83 1004.59,381.62 1012.99,422.97 L1013.90,426.25 C1014.71,427.77 1014.96,433.59 1015.53,435.25 C1014.25,435.94 1015.70,439.02 1015.94,439.75 L1016.42,444.75 L1016.41,461.25 L1015.93,467.25 C1015.29,468.13 1014.81,470.22 1015.00,472.06 L1015.00,475.44 C1014.23,475.92 1014.00,476.51 1014.00,478.06 C1011.04,497.16 1003.16,512.91 993.47,525.49 L991.25,525.49 C981.78,520.45 971.32,516.00 959.75,512.87 C958.33,511.99 958.13,502.03 957.49,498.91 C952.62,474.89 940.48,453.06 923.75,440.30 C878.86,406.08 835.51,453.92 785.75,429.75 C785.27,388.69 785.47,339.05 785.63,298.25 C775.03,246.59 744.48,214.86 690.25,207.50 L555.50,207.50 C556.09,189.47 557.68,172.50 563.63,159.75 C578.56,129.37 601.39,104.12 604.16,60.25 L604.39,56.25 L604.75,44.37 C608.10,43.57 612.01,42.18 615.94,42.00 C617.49,42.00 618.08,41.77 618.56,41.00 L620.94,41.00 C622.49,41.00 623.08,40.77 623.56,40.00 L626.44,40.00 C628.38,40.00 629.08,39.78 629.56,39.00 L631.94,39.00 C633.60,39.17 635.68,38.85 636.20,38.10 L646.75,36.98 L672.25,37.05 Z" fill="#FE8B18" fill-rule="nonzero"/><g><path d="M993.47,525.49 C997.72,537.78 1005.55,551.09 1006.00,569.00 C1005.86,571.33 1006.29,573.53 1006.93,574.75 L1007.01,594.25 C1006.21,594.69 1005.30,597.94 1006.50,598.75 C1001.98,635.54 985.31,664.15 964.01,684.31 L964.01,694.25 C963.34,694.68 962.25,697.52 963.51,698.25 C958.00,745.49 932.55,780.68 901.25,801.92 C885.22,812.17 868.05,821.71 844.00,824.00 L841.50,824.00 L841.25,688.15 C840.18,666.26 826.83,653.20 805.75,651.42 L679.46,651.42 L679.46,650.25 C694.47,638.18 711.45,627.78 727.63,616.79 C755.10,595.62 777.18,567.09 785.59,525.25 C785.51,496.23 785.26,459.84 785.75,429.75 C835.51,453.92 878.86,406.08 923.75,440.30 C940.48,453.06 952.62,474.89 957.49,498.91 C958.13,502.03 958.33,511.99 959.75,512.87 C971.32,516.00 981.78,520.45 991.25,525.49 L993.47,525.49 Z" fill="#EA4B7D" fill-rule="nonzero"/><g><path d="M679.46,651.42 L805.75,651.42 C826.83,653.20 840.18,666.26 841.25,688.15 L841.00,825.00 L841.00,948.00 C838.79,949.79 837.86,952.86 834.00,953.00 L827.94,953.00 C821.89,952.66 819.02,947.82 815.01,945.25 L745.24,879.47 L742.07,877.97 C742.14,876.59 737.86,876.60 737.94,877.96 C734.81,878.97 731.73,882.38 729.75,884.25 L667.25,943.58 C662.83,947.67 658.05,952.43 650.46,953.49 L642.76,952.96 C639.33,952.70 636.86,947.77 636.50,944.17 C636.91,865.13 636.83,847.65 636.03,846.92 C636.83,845.87 636.94,818.21 636.63,692.25 C649.07,678.42 663.34,662.54 679.46,651.42 Z" fill="#2CCAA3" fill-rule="nonzero"/><path d="M748.92,707.75 C750.04,710.24 759.40,732.62 759.51,732.75 C761.94,735.58 799.17,736.87 802.04,740.55 C803.27,742.12 802.78,744.96 801.99,746.31 L773.50,773.20 L781.00,813.39 C780.89,817.14 778.53,819.29 774.69,818.50 C773.49,818.25 740.67,798.45 740.25,798.41 C740.04,798.39 706.55,818.28 705.43,818.50 C702.65,819.04 699.90,817.17 699.39,815.30 C698.99,813.80 707.45,774.44 707.00,773.09 C704.51,770.37 678.13,746.00 678.00,745.54 C677.48,743.67 678.33,740.71 679.02,740.02 C681.42,737.63 719.24,734.78 720.91,733.47 L736.06,696.75 C743.07,687.55 746.98,703.42 748.92,707.75 Z" fill="#FEFDFD" fill-rule="nonzero"/><path d="M636.50,944.17 L636.03,846.92 C636.83,847.65 636.91,865.13 636.50,944.17 Z" fill="#FEFDFD" fill-rule="nonzero"/><path d="M844.00,824.00 C844.00,824.77 843.33,825.00 841.00,825.00 L841.25,688.15 L841.50,824.00 L844.00,824.00 Z" fill="#FEFDFD" fill-rule="nonzero"/><path d="M650.46,953.49 C649.50,954.30 643.14,954.55 642.76,952.96 L650.46,953.49 Z" fill="#FEFDFD" fill-rule="nonzero"/><path d="M834.00,953.00 C835.48,954.75 826.60,954.16 827.94,953.00 L834.00,953.00 Z" fill="#FEFDFD" fill-rule="nonzero"/><path d="M737.94,877.96 C737.86,876.60 742.14,876.59 742.07,877.97 L737.94,877.96 Z" fill="#FEFDFD" fill-rule="nonzero"/></g><path d="M1006.93,574.75 C1006.29,573.53 1005.86,571.33 1006.00,569.00 C1006.78,569.00 1006.99,570.27 1006.93,574.75 Z" fill="#FEFDFD" fill-rule="nonzero"/><path d="M1007.01,594.25 L1006.50,598.75 C1005.30,597.94 1006.21,594.69 1007.01,594.25 Z" fill="#FEFDFD" fill-rule="nonzero"/><path d="M964.01,694.25 L963.51,698.25 C962.25,697.52 963.34,694.68 964.01,694.25 Z" fill="#FEFDFD" fill-rule="nonzero"/></g><path d="M678.25,37.55 C677.21,38.57 673.42,37.37 672.25,37.05 L678.25,37.55 Z" fill="#FEFDFD" fill-rule="nonzero"/><path d="M960.93,306.25 C960.92,307.76 961.54,310.98 960.00,311.06 C959.82,309.22 960.28,307.13 960.93,306.25 Z" fill="#FEFDFD" fill-rule="nonzero"/><path d="M1015.93,467.25 C1015.92,468.76 1016.54,471.98 1015.00,472.06 C1014.81,470.22 1015.29,468.13 1015.93,467.25 Z" fill="#FEFDFD" fill-rule="nonzero"/><path d="M636.20,38.10 C635.68,38.85 633.60,39.17 631.94,39.00 C631.95,37.60 634.86,37.98 636.20,38.10 Z" fill="#FEFDFD" fill-rule="nonzero"/><path d="M1015.53,435.25 L1015.94,439.75 C1015.70,439.02 1014.25,435.94 1015.53,435.25 Z" fill="#FEFDFD" fill-rule="nonzero"/><path d="M629.56,39.00 C629.08,39.78 628.38,40.00 626.44,40.00 C626.92,39.23 627.62,39.00 629.56,39.00 Z" fill="#FEFDFD" fill-rule="nonzero"/><path d="M686.73,38.36 C685.59,39.45 684.04,38.81 683.25,38.02 L686.73,38.36 Z" fill="#FEFDFD" fill-rule="nonzero"/><path d="M623.56,40.00 C623.08,40.77 622.49,41.00 620.94,41.00 C621.42,40.23 622.01,40.00 623.56,40.00 Z" fill="#FEFDFD" fill-rule="nonzero"/><path d="M618.56,41.00 C618.08,41.77 617.49,42.00 615.94,42.00 C616.42,41.23 617.01,41.00 618.56,41.00 Z" fill="#FEFDFD" fill-rule="nonzero"/><path d="M1015.00,475.44 C1015.00,476.99 1014.77,477.58 1014.00,478.06 C1014.00,476.51 1014.23,475.92 1015.00,475.44 Z" fill="#FEFDFD" fill-rule="nonzero"/></g><g><path d="M256.49,580.68 L256.49,670.97 C262.30,719.28 293.41,749.17 338.75,758.25 L546.19,758.52 C592.22,753.03 611.05,718.96 636.63,692.25 C636.94,818.21 636.83,845.87 636.03,846.92 C618.35,857.80 596.05,866.10 570.75,868.50 C569.80,868.07 568.21,867.53 567.92,869.04 L540.75,869.00 C540.26,868.04 536.66,867.48 535.75,868.41 L529.69,868.00 C529.64,867.11 527.23,866.42 526.75,867.43 L522.05,866.99 C521.79,865.58 520.17,866.01 519.25,866.55 C517.13,866.09 512.03,865.09 509.08,865.04 C508.79,863.53 507.20,864.08 506.25,864.49 L499.75,863.55 L494.75,862.96 C494.02,862.02 492.04,861.88 490.00,862.00 C480.59,861.29 473.85,862.99 468.80,866.69 C425.94,908.67 386.49,959.91 339.25,997.25 C332.57,1001.59 325.86,1007.11 314.68,1006.00 C306.63,999.64 308.74,996.84 311.16,987.25 L326.05,932.54 C326.79,932.08 326.99,931.50 326.95,929.96 L334.00,896.56 C334.77,896.08 334.99,895.50 334.95,893.96 L339.00,870.56 C339.77,870.08 340.00,869.50 340.00,868.00 L340.01,865.75 C340.73,865.08 341.19,863.78 341.00,862.00 L341.00,858.56 C341.77,858.08 342.00,857.50 342.00,856.00 L342.09,853.75 L343.08,849.02 L343.02,846.25 C343.66,845.55 344.65,842.20 343.58,841.25 L344.04,835.04 C345.02,835.82 343.97,833.69 345.00,834.44 C344.93,830.22 345.44,823.74 344.08,820.75 C343.70,815.52 340.90,809.75 335.56,808.93 C335.29,807.29 330.28,807.90 329.75,808.99 C311.26,819.10 290.59,830.32 264.06,833.00 C262.08,833.00 261.50,833.22 261.50,833.96 L254.75,834.45 C253.87,834.09 250.56,833.33 250.42,835.03 L231.75,834.95 C230.74,834.60 227.22,833.37 226.25,834.45 L220.75,833.99 C220.31,833.63 218.31,832.17 217.75,833.50 C157.93,824.24 115.05,790.15 87.94,747.25 C78.21,731.25 68.80,711.20 66.00,687.56 C66.16,685.87 65.88,683.87 65.06,683.26 L64.47,674.25 L65.03,659.00 L65.00,653.56 C65.77,653.08 66.00,652.50 66.00,651.00 C65.80,645.01 68.62,641.85 69.00,636.50 C80.87,644.39 94.17,650.88 112.25,652.62 C162.91,655.64 170.52,611.70 194.67,587.54 C209.03,580.35 235.34,576.24 256.49,580.68 Z" fill="#218BF7" fill-rule="nonzero"/><path d="M65.03,659.00 L64.47,674.25 C64.05,661.47 64.14,659.00 65.03,659.00 Z" fill="#FEFDFD" fill-rule="nonzero"/><path d="M344.04,835.04 L344.08,820.75 C345.44,823.74 344.93,830.22 345.00,834.44 C343.97,833.69 345.02,835.82 344.04,835.04 Z" fill="#FEFDFD" fill-rule="nonzero"/><path d="M329.75,808.99 C330.28,807.90 335.29,807.29 335.56,808.93 L329.75,808.99 Z" fill="#FEFDFD" fill-rule="nonzero"/><path d="M494.75,862.96 C491.07,862.99 490.00,862.77 490.00,862.00 C492.04,861.88 494.02,862.02 494.75,862.96 Z" fill="#FEFDFD" fill-rule="nonzero"/><path d="M540.75,869.00 L535.75,868.41 C536.66,867.48 540.26,868.04 540.75,869.00 Z" fill="#FEFDFD" fill-rule="nonzero"/><path d="M231.75,834.95 L226.25,834.45 C227.22,833.37 230.74,834.60 231.75,834.95 Z" fill="#FEFDFD" fill-rule="nonzero"/><path d="M343.58,841.25 C344.65,842.20 343.66,845.55 343.02,846.25 L343.58,841.25 Z" fill="#FEFDFD" fill-rule="nonzero"/><path d="M254.75,834.45 L250.42,835.03 C250.56,833.33 253.87,834.09 254.75,834.45 Z" fill="#FEFDFD" fill-rule="nonzero"/><path d="M343.08,849.02 L342.09,853.75 C342.02,849.97 342.22,849.00 343.08,849.02 Z" fill="#FEFDFD" fill-rule="nonzero"/><path d="M66.00,687.56 C65.23,687.08 65.01,686.11 65.06,683.26 C65.88,683.87 66.16,685.87 66.00,687.56 Z" fill="#FEFDFD" fill-rule="nonzero"/><path d="M341.00,862.00 C341.19,863.78 340.73,865.08 340.01,865.75 C340.00,862.84 340.23,862.00 341.00,862.00 Z" fill="#FEFDFD" fill-rule="nonzero"/><path d="M66.00,651.00 C66.00,652.50 65.77,653.08 65.00,653.56 C65.00,651.58 65.22,651.00 66.00,651.00 Z" fill="#FEFDFD" fill-rule="nonzero"/><path d="M264.06,833.00 C263.58,833.77 263.00,833.99 261.50,833.96 C261.50,833.22 262.08,833.00 264.06,833.00 Z" fill="#FEFDFD" fill-rule="nonzero"/><path d="M342.00,856.00 C342.00,857.50 341.77,858.08 341.00,858.56 C341.00,856.58 341.23,856.00 342.00,856.00 Z" fill="#FEFDFD" fill-rule="nonzero"/><path d="M529.69,868.00 L526.75,867.43 C527.23,866.42 529.64,867.11 529.69,868.00 Z" fill="#FEFDFD" fill-rule="nonzero"/><path d="M340.00,868.00 C340.00,869.50 339.77,870.08 339.00,870.56 C339.00,868.58 339.23,868.00 340.00,868.00 Z" fill="#FEFDFD" fill-rule="nonzero"/><path d="M220.75,833.99 L217.75,833.50 C218.31,832.17 220.31,833.63 220.75,833.99 Z" fill="#FEFDFD" fill-rule="nonzero"/><path d="M509.08,865.04 L506.25,864.49 C507.20,864.08 508.79,863.53 509.08,865.04 Z" fill="#FEFDFD" fill-rule="nonzero"/><path d="M522.05,866.99 L519.25,866.55 C520.17,866.01 521.79,865.58 522.05,866.99 Z" fill="#FEFDFD" fill-rule="nonzero"/><path d="M570.75,868.50 L567.92,869.04 C568.21,867.53 569.80,868.07 570.75,868.50 Z" fill="#FEFDFD" fill-rule="nonzero"/><path d="M334.95,893.96 C334.99,895.50 334.77,896.08 334.00,896.56 C334.00,895.01 334.21,894.43 334.95,893.96 Z" fill="#FEFDFD" fill-rule="nonzero"/><path d="M326.95,929.96 C326.99,931.50 326.79,932.08 326.05,932.54 C326.01,931.00 326.21,930.42 326.95,929.96 Z" fill="#FEFDFD" fill-rule="nonzero"/></g><path d="M66.00,327.44 L66.00,340.06 C64.48,340.96 64.48,326.54 66.00,327.44 Z" fill="#FEFDFD" fill-rule="nonzero"/><path d="M6.05,512.08 C5.20,511.57 5.02,509.27 5.10,500.25 L6.05,512.08 Z" fill="#218BF7" fill-rule="nonzero"/><path d="M67.08,313.90 L66.11,322.75 C66.21,320.65 65.15,314.11 67.08,313.90 Z" fill="#218BF7" fill-rule="nonzero"/><path d="M507.75,10.08 C506.21,10.70 503.64,11.14 501.00,11.00 C501.00,10.21 502.43,10.02 507.75,10.08 Z" fill="#218BF7" fill-rule="nonzero"/><g><path d="M377.75,43.09 L368.95,43.99 L369.56,43.00 L377.75,43.09 Z" fill="#218BF7" fill-rule="nonzero"/><path d="M369.56,43.00 L368.95,43.99 L366.44,44.00 C366.92,43.22 367.62,43.00 369.56,43.00 Z" fill="#FEFDFD" fill-rule="nonzero"/></g><g><path d="M6.04,476.00 L5.09,483.75 L5.00,476.00 L6.04,476.00 Z" fill="#218BF7" fill-rule="nonzero"/><path d="M6.00,472.50 L6.04,476.00 L5.00,476.00 C5.00,473.29 5.22,472.50 6.00,472.50 Z" fill="#FEFDFD" fill-rule="nonzero"/></g><path d="M7.00,462.44 C7.15,464.73 6.82,467.48 6.07,468.75 C6.22,466.94 5.24,462.71 7.00,462.44 Z" fill="#218BF7" fill-rule="nonzero"/><path d="M7.09,520.99 C6.20,521.00 6.02,519.83 6.11,514.75 L7.09,520.99 Z" fill="#218BF7" fill-rule="nonzero"/><path d="M362.75,44.07 C361.57,44.73 359.07,45.15 356.94,45.00 C357.17,43.29 361.02,44.19 362.75,44.07 Z" fill="#218BF7" fill-rule="nonzero"/><path d="M68.08,307.02 L67.09,311.75 C67.02,307.97 67.22,307.00 68.08,307.02 Z" fill="#218BF7" fill-rule="nonzero"/><path d="M498.75,11.09 L493.91,12.08 C493.98,10.43 497.21,11.06 498.75,11.09 Z" fill="#218BF7" fill-rule="nonzero"/><path d="M541.09,12.08 L536.25,11.15 C537.75,10.99 541.04,10.47 541.09,12.08 Z" fill="#218BF7" fill-rule="nonzero"/><path d="M410.02,44.46 C408.54,45.25 406.34,44.91 405.25,44.05 L410.02,44.46 Z" fill="#218BF7" fill-rule="nonzero"/><path d="M8.00,455.44 C8.15,457.14 7.92,459.12 7.01,459.75 C7.00,456.89 7.22,455.92 8.00,455.44 Z" fill="#218BF7" fill-rule="nonzero"/><path d="M492.25,12.10 L487.91,13.10 C487.93,11.54 490.81,11.99 492.25,12.10 Z" fill="#218BF7" fill-rule="nonzero"/><path d="M349.25,46.10 L344.91,47.10 C344.93,45.54 347.81,45.99 349.25,46.10 Z" fill="#218BF7" fill-rule="nonzero"/><path d="M9.07,448.93 L8.10,453.25 C7.99,451.83 7.55,448.93 9.07,448.93 Z" fill="#218BF7" fill-rule="nonzero"/><path d="M355.25,45.08 L350.92,46.07 C350.94,44.54 353.81,45.02 355.25,45.08 Z" fill="#218BF7" fill-rule="nonzero"/><path d="M68.86,300.97 C69.24,301.86 69.06,304.19 68.00,304.06 C68.00,301.69 68.19,300.99 68.86,300.97 Z" fill="#218BF7" fill-rule="nonzero"/><path d="M550.97,14.10 L547.75,13.09 C550.27,13.02 550.99,13.25 550.97,14.10 Z" fill="#218BF7" fill-rule="nonzero"/><path d="M482.06,14.03 C481.58,14.78 480.88,15.00 478.94,15.00 C479.42,14.22 480.12,14.01 482.06,14.03 Z" fill="#218BF7" fill-rule="nonzero"/><path d="M11.85,434.75 C12.22,435.97 12.15,438.13 10.90,438.07 L11.85,434.75 Z" fill="#218BF7" fill-rule="nonzero"/><path d="M554.56,15.00 C553.01,15.00 552.42,14.78 551.94,14.00 C553.49,14.00 554.08,14.23 554.56,15.00 Z" fill="#218BF7" fill-rule="nonzero"/><path d="M474.58,16.09 C474.09,16.79 473.49,17.00 471.94,17.00 C472.42,16.22 473.01,16.02 474.58,16.09 Z" fill="#218BF7" fill-rule="nonzero"/><path d="M343.56,47.00 C343.08,47.77 342.49,48.00 340.94,48.00 C341.42,47.23 342.01,47.00 343.56,47.00 Z" fill="#218BF7" fill-rule="nonzero"/><path d="M331.55,50.05 C331.08,50.79 330.49,51.00 328.94,51.00 C329.42,50.22 330.01,50.01 331.55,50.05 Z" fill="#218BF7" fill-rule="nonzero"/><path d="M219.55,131.00 C219.08,131.77 218.49,132.00 216.94,132.00 C217.42,131.22 218.01,131.00 219.55,131.00 Z" fill="#218BF7" fill-rule="nonzero"/><path d="M215.56,132.00 C215.08,132.78 214.49,133.00 212.94,133.00 C213.42,132.22 214.01,132.00 215.56,132.00 Z" fill="#218BF7" fill-rule="nonzero"/><path d="M11.00,439.94 C11.00,441.49 10.79,442.08 10.05,442.54 C10.01,441.00 10.22,440.42 11.00,439.94 Z" fill="#218BF7" fill-rule="nonzero"/><path d="M7.42,526.75 L6.99,523.75 C7.37,524.18 8.89,526.23 7.42,526.75 Z" fill="#218BF7" fill-rule="nonzero"/><path d="M557.96,16.10 L555.75,15.08 C557.49,15.02 557.99,15.25 557.96,16.10 Z" fill="#218BF7" fill-rule="nonzero"/><path d="M560.99,17.02 L558.75,16.08 C560.49,16.02 561.00,16.23 560.99,17.02 Z" fill="#218BF7" fill-rule="nonzero"/><path d="M568.96,20.10 L566.75,19.06 C568.49,19.01 568.99,19.25 568.96,20.10 Z" fill="#218BF7" fill-rule="nonzero"/></g><path d="M1016.42,444.75 L1016.41,461.25 L1016.42,444.75 Z" fill="#FEFDFD" fill-rule="nonzero"/><path d="M961.37,290.25 L961.40,298.25 L961.37,290.25 Z" fill="#FEFDFD" fill-rule="nonzero"/><path d="M394.75,43.34 L388.25,43.11 L394.75,43.34 Z" fill="#1877E9" fill-rule="nonzero"/><path d="M546.08,13.09 L542.25,12.08 C544.72,12.02 545.58,12.24 546.08,13.09 Z" fill="#218BF7" fill-rule="nonzero"/><path d="M959.91,313.75 C959.98,315.84 959.75,316.58 958.90,317.07 L959.91,313.75 Z" fill="#FEFDFD" fill-rule="nonzero"/><path d="M604.39,56.25 L604.16,60.25 L604.39,56.25 Z" fill="#EA4B7D" fill-rule="nonzero"/><path d="M1013.90,426.25 L1012.99,422.97 C1013.77,423.43 1013.98,424.16 1013.90,426.25 Z" fill="#FEFDFD" fill-rule="nonzero"/><path d="M569.78,20.25 L569.50,20.00 L569.78,20.25 Z" fill="#218BF7" fill-rule="nonzero"/></svg>
