<svg version="1.1" xmlns="http://www.w3.org/2000/svg" viewBox="0 0 1024 1024" width="1024" height="1024"><path d="M185.00,1.00 C187.33,1.00 188.00,0.78 188.00,-0.00 L834.44,0.00 C834.92,0.78 835.72,1.00 838.00,1.00 C866.47,2.39 889.47,11.61 908.75,20.83 C953.39,43.65 988.14,79.34 1007.90,125.75 C1015.09,143.11 1021.50,161.77 1023.13,184.48 C1023.23,184.91 1022.19,188.26 1024.00,187.50 L1024.00,836.50 C1023.23,836.50 1023.00,837.06 1023.00,839.00 C1021.83,860.39 1016.25,877.58 1009.94,893.75 C986.59,951.68 936.99,999.35 873.25,1017.11 C863.06,1019.89 850.73,1022.87 839.98,1023.25 C840.45,1023.86 836.27,1021.67 837.00,1024.00 L187.50,1024.00 C187.50,1023.22 186.82,1023.00 184.44,1023.00 C150.17,1020.45 121.98,1008.20 99.74,994.75 C77.00,980.74 57.85,963.37 41.96,942.75 C43.35,942.55 39.89,941.49 41.20,941.75 C23.21,918.07 8.70,889.46 3.10,853.97 L2.17,850.75 C1.83,847.53 0.47,843.04 1.00,838.56 C1.00,836.18 0.78,835.50 -0.00,835.50 L-0.00,189.00 C0.78,189.00 1.00,188.32 0.98,186.00 C0.40,181.03 1.89,177.60 2.05,173.54 C2.79,173.07 3.00,172.38 3.00,170.44 C3.14,163.39 5.49,157.10 6.94,151.25 C23.96,89.72 70.07,39.68 125.75,15.86 C142.09,9.06 161.95,2.38 185.00,1.00 Z" fill="#1E75FC" fill-rule="nonzero"/><path d="M880.67,563.75 C865.45,724.18 751.40,846.56 617.75,887.45 C428.89,943.36 269.93,842.68 200.02,727.50 C200.02,727.50 197.92,727.50 197.92,727.50 C196.82,727.74 145.76,770.97 143.25,771.50 C140.42,772.09 137.98,769.93 137.50,767.55 L137.50,608.95 C138.56,606.33 140.76,603.17 144.83,604.00 L291.25,638.52 C295.40,639.20 297.57,644.69 294.75,648.42 L245.28,688.87 C280.42,746.65 330.39,791.44 394.30,819.40 C607.46,906.18 801.54,752.14 822.59,563.75 C828.94,532.74 874.85,526.90 880.67,563.75 Z" fill="#FEFDFD" fill-rule="nonzero"/><path d="M824.02,297.50 L824.95,297.50 L879.57,253.00 C882.64,251.75 885.32,253.38 885.99,256.25 L885.75,417.08 C883.15,419.57 883.10,420.34 878.10,420.00 L731.39,385.45 C729.52,384.58 726.83,381.52 728.00,377.32 C728.61,375.14 777.84,337.00 778.12,336.05 C778.79,333.76 760.74,308.73 758.49,305.75 C705.55,235.68 610.31,171.30 478.25,184.55 C328.35,201.89 221.25,312.19 201.47,460.75 C195.38,490.67 150.68,497.42 143.87,462.25 C157.80,299.68 275.55,173.67 414.25,137.03 C605.28,89.17 753.26,183.95 824.02,297.50 Z" fill="#FEFDFD" fill-rule="nonzero"/><path d="M659.75,522.26 C678.68,527.34 691.28,539.13 694.50,559.59 L694.49,663.25 C690.48,683.54 677.94,696.31 657.25,700.25 C628.30,700.55 592.18,700.67 563.25,700.25 C541.94,696.64 530.08,683.84 525.80,663.25 L525.46,563.25 C526.97,542.53 541.91,525.58 560.75,522.56 C566.14,521.70 655.74,521.61 659.75,522.26 Z" fill="#764CE6" fill-rule="nonzero"/><path d="M329.29,658.25 L329.16,591.75 L329.11,570.25 L329.39,563.25 C329.77,541.30 347.46,524.03 368.25,522.03 L458.25,522.04 C480.85,523.91 496.61,540.58 498.49,563.25 L498.45,659.75 C495.49,682.04 482.91,696.31 461.25,700.00 L365.75,699.96 C345.24,696.21 330.46,681.70 329.29,658.25 Z" fill="#FD5B48" fill-rule="nonzero"/><path d="M329.29,447.75 L329.34,351.00 C330.00,330.79 345.45,315.02 362.60,311.48 C368.43,310.28 454.84,309.81 461.75,310.79 C482.66,315.71 495.97,328.57 498.50,351.57 L498.41,449.75 C495.07,470.68 482.87,483.61 462.75,488.25 C459.62,488.74 367.54,488.74 364.25,488.25 C344.79,483.60 330.70,470.42 329.29,447.75 Z" fill="#39C688" fill-rule="nonzero"/><path d="M525.84,440.00 L525.78,350.75 C528.19,328.23 542.26,315.15 562.75,311.00 L654.75,311.08 C677.48,313.44 690.44,327.39 694.50,348.56 L694.51,451.25 C690.85,471.34 677.90,485.11 656.75,488.44 L563.25,488.44 C540.43,484.24 524.44,468.51 525.84,440.00 Z" fill="#FEC301" fill-rule="nonzero"/><path d="M329.34,351.00 L329.29,447.75 L329.34,351.00 Z" fill="#FEFDFD" fill-rule="nonzero"/><path d="M525.78,350.75 L525.84,440.00 L525.78,350.75 Z" fill="#FEFDFD" fill-rule="nonzero"/><path d="M329.29,658.25 L329.16,591.75 L329.29,658.25 Z" fill="#FEFDFD" fill-rule="nonzero"/><path d="M329.39,563.25 L329.11,570.25 L329.39,563.25 Z" fill="#FEFDFD" fill-rule="nonzero"/><path d="M3.00,170.44 C3.00,172.38 2.79,173.07 2.05,173.54 C2.01,171.62 2.22,170.92 3.00,170.44 Z" fill="#FEFDFD" fill-rule="nonzero"/><path d="M3.10,853.97 C2.24,853.99 2.04,853.28 2.17,850.75 L3.10,853.97 Z" fill="#FEFDFD" fill-rule="nonzero"/><path d="M834.44,0.00 L838.00,-0.00 L838.00,1.00 C835.72,1.00 834.92,0.78 834.44,0.00 Z" fill="#FEFDFD" fill-rule="nonzero"/><path d="M185.00,1.00 L185.00,-0.00 L188.00,-0.00 C188.00,0.78 187.33,1.00 185.00,1.00 Z" fill="#FEFDFD" fill-rule="nonzero"/><path d="M1024.00,184.50 L1024.00,187.50 C1022.19,188.26 1023.23,184.91 1023.13,184.48 L1024.00,184.50 Z" fill="#FEFDFD" fill-rule="nonzero"/><path d="M0.98,186.00 C1.00,188.32 0.78,189.00 -0.00,189.00 L-0.00,186.00 L0.98,186.00 Z" fill="#FEFDFD" fill-rule="nonzero"/><path d="M0.00,837.94 L-0.00,835.50 C0.78,835.50 1.00,836.18 1.00,838.56 L0.00,837.94 Z" fill="#FEFDFD" fill-rule="nonzero"/><path d="M187.50,1024.00 L185.06,1024.00 L184.44,1023.00 C186.82,1023.00 187.50,1023.22 187.50,1024.00 Z" fill="#FEFDFD" fill-rule="nonzero"/><path d="M839.98,1023.25 L840.00,1024.00 L837.00,1024.00 C836.27,1021.67 840.45,1023.86 839.98,1023.25 Z" fill="#FEFDFD" fill-rule="nonzero"/><path d="M1023.00,839.00 C1023.00,837.06 1023.23,836.50 1024.00,836.50 L1024.00,839.00 L1023.00,839.00 Z" fill="#FEFDFD" fill-rule="nonzero"/></svg>
