<svg version="1.1" xmlns="http://www.w3.org/2000/svg" viewBox="0 0 1024 1024" width="1024" height="1024"><path d="M141.50,1.00 C143.83,1.00 144.50,0.78 144.50,-0.00 L880.00,-0.00 C880.00,0.78 880.68,1.00 883.06,1.00 C886.88,0.44 889.99,1.75 892.97,2.12 C893.43,2.80 894.11,3.00 896.00,3.00 C963.45,17.01 1014.01,73.12 1023.29,144.47 C1023.22,143.98 1022.13,147.77 1024.00,147.00 L1024.00,879.44 C1018.59,913.94 1005.14,943.06 987.74,964.25 C962.98,994.78 929.76,1016.59 882.00,1024.00 L142.06,1024.00 C141.75,1022.48 138.20,1023.03 136.86,1022.50 L134.75,1022.49 C105.35,1017.53 81.91,1005.71 62.75,990.53 C41.74,973.90 23.71,951.54 12.35,924.25 C7.14,912.19 1.94,894.84 0.69,878.63 C0.78,878.91 1.87,875.30 -0.00,876.00 L-0.00,147.50 C0.78,147.50 1.00,146.82 1.00,144.44 C1.75,128.51 6.40,115.08 11.05,102.75 C22.25,74.30 42.03,49.27 64.25,32.23 L72.25,26.20 L87.75,17.03 L88.10,17.00 C102.73,9.38 121.49,2.18 141.50,1.00 Z" fill="#1E79FC" fill-rule="nonzero"/><g><path d="M485.75,875.11 L231.25,875.07 C205.44,872.99 187.53,852.11 185.51,826.25 L185.50,197.25 C187.69,171.87 206.12,150.99 231.66,149.00 L519.81,149.00 C522.61,150.35 525.22,152.27 526.50,155.15 L526.50,354.46 C527.69,358.27 530.38,360.37 534.25,361.50 L732.77,361.50 C735.85,362.19 737.36,365.03 739.46,367.25 L739.52,491.98 L489.25,491.98 C475.02,494.79 466.31,503.95 464.00,518.61 L464.01,850.75 C466.31,863.91 474.03,871.20 485.75,875.11 Z" fill="#FEFEFD" fill-rule="nonzero"/><path d="M266.75,219.01 L445.79,219.00 C449.30,219.97 451.34,222.37 452.50,225.66 L452.50,352.68 C452.12,354.84 449.42,358.41 446.75,359.25 L268.90,359.51 C265.10,358.98 261.18,356.41 260.50,352.53 L260.50,225.82 C261.20,222.94 263.75,220.21 266.75,219.01 Z" fill="#1E79FC" fill-rule="nonzero"/><g><path d="M739.52,491.98 L783.75,492.13 C786.64,493.93 790.55,495.19 792.75,496.75 C793.08,496.98 832.74,537.12 832.90,537.36 C835.24,540.76 837.49,546.66 838.00,551.68 L837.98,848.75 C835.64,864.36 824.13,874.68 808.24,875.14 C701.56,875.72 590.93,875.78 485.75,875.11 C474.03,871.20 466.31,863.91 464.01,850.75 L464.00,518.61 C466.31,503.95 475.02,494.79 489.25,491.98 L739.52,491.98 Z" fill="#093070" fill-rule="nonzero"/><g><path d="M528.25,674.10 L771.95,674.00 C778.51,674.63 782.19,678.32 784.00,683.68 L784.00,852.01 L780.58,855.75 L520.64,856.01 C518.84,854.96 516.91,852.87 516.50,850.53 L516.50,684.63 C517.83,678.82 522.14,674.97 528.25,674.10 Z" fill="#FEFEFD" fill-rule="nonzero"/><path d="M536.62,804.50 C536.62,804.50 566.11,804.39 566.43,804.50 C568.96,805.35 568.57,836.28 566.80,837.00 L535.97,837.00 C534.48,833.53 534.66,805.30 536.62,804.50 Z" fill="#093070" fill-rule="nonzero"/></g><g><path d="M557.67,505.50 L757.25,505.75 L757.50,631.50 L557.00,631.50 L557.00,506.17 L557.67,505.50 Z" fill="#FEFEFD" fill-rule="nonzero"/><path d="M731.00,532.07 C731.21,532.70 731.00,610.30 731.00,610.30 C731.00,610.30 729.80,611.50 729.80,611.50 L683.11,611.50 C682.16,605.92 682.39,531.80 682.50,531.55 C687.32,530.04 730.13,529.48 731.00,532.07 Z" fill="#093070" fill-rule="nonzero"/></g></g></g><path d="M580.75,152.89 L736.94,309.76 C741.00,316.65 739.22,323.22 732.25,325.75 L572.91,326.02 C568.36,325.38 565.07,322.28 564.48,318.25 L564.75,156.75 C566.92,148.93 575.65,149.21 580.75,152.89 Z" fill="#FEFEFD" fill-rule="nonzero"/><path d="M896.00,3.00 C894.11,3.00 893.43,2.80 892.97,2.12 C893.45,2.22 896.75,1.21 896.00,3.00 Z" fill="#FEFEFD" fill-rule="nonzero"/><path d="M136.86,1022.50 L134.75,1022.49 L136.86,1022.50 Z" fill="#FEFEFD" fill-rule="nonzero"/><path d="M141.50,1.00 L141.50,-0.00 L144.50,-0.00 C144.50,0.78 143.83,1.00 141.50,1.00 Z" fill="#FEFEFD" fill-rule="nonzero"/><path d="M880.00,-0.00 L882.44,0.00 L883.06,1.00 C880.68,1.00 880.00,0.78 880.00,-0.00 Z" fill="#FEFEFD" fill-rule="nonzero"/><path d="M1.00,144.44 C1.00,146.82 0.78,147.50 -0.00,147.50 L-0.00,145.06 L1.00,144.44 Z" fill="#FEFEFD" fill-rule="nonzero"/><path d="M1023.29,144.47 L1024.00,144.50 L1024.00,147.00 C1022.13,147.77 1023.22,143.98 1023.29,144.47 Z" fill="#FEFEFD" fill-rule="nonzero"/><path d="M-0.00,878.50 L-0.00,876.00 C1.87,875.30 0.78,878.91 0.69,878.63 L-0.00,878.50 Z" fill="#FEFEFD" fill-rule="nonzero"/></svg>
