<svg version="1.1" xmlns="http://www.w3.org/2000/svg" viewBox="0 0 1024 1024" width="1024" height="1024"><path d="M180.43,1.02 C183.15,1.01 184.08,0.77 184.56,-0.00 L840.00,-0.00 C840.00,0.78 840.56,1.00 842.50,1.00 C851.51,0.61 858.36,2.86 865.45,4.09 C865.92,4.79 866.51,5.00 868.06,5.00 C876.15,6.02 883.25,9.11 890.75,11.15 C910.61,18.28 931.24,29.78 946.25,41.94 C984.04,72.34 1013.29,112.71 1022.04,171.96 C1021.84,173.73 1021.99,176.09 1022.99,176.75 L1023.00,180.00 C1023.00,182.71 1023.23,183.50 1024.00,183.50 L1024.00,841.00 C1022.18,840.23 1023.12,844.47 1023.29,844.13 C1011.12,942.88 940.76,1010.60 843.92,1024.00 L183.00,1024.00 C183.00,1023.22 182.33,1023.00 180.00,1023.00 C98.73,1016.00 35.76,958.12 12.03,893.25 C6.02,878.32 2.50,860.31 0.00,841.94 L-0.00,184.50 C1.79,185.40 0.86,180.79 0.75,181.49 L1.05,176.54 C1.79,176.07 2.00,175.28 2.00,173.00 L1.99,169.25 C2.90,168.46 3.33,166.93 2.43,165.76 C4.97,152.19 9.18,137.76 14.03,125.75 C37.84,65.81 94.31,15.02 165.75,2.59 C166.33,3.45 169.10,3.08 169.22,1.96 C172.95,1.57 176.31,1.11 180.43,1.02 Z" fill="#2077FC" fill-rule="nonzero"/><g><path d="M629.75,233.15 L854.91,233.00 C874.23,235.49 886.30,247.94 889.54,265.75 L889.25,629.25 C884.54,644.72 875.10,654.41 859.25,658.75 L629.50,659.01 C613.36,657.42 598.77,643.21 596.31,627.75 C595.96,625.59 596.13,598.63 595.75,598.25 L536.00,597.99 L535.98,648.75 C534.78,653.92 528.96,657.72 523.02,654.97 L427.25,558.93 C425.11,556.50 422.72,552.15 425.09,547.25 L523.25,448.57 C528.79,445.78 535.14,449.57 536.00,454.47 L536.00,505.50 L595.99,505.50 L596.25,263.75 C601.04,247.14 611.64,235.82 629.75,233.15 Z" fill="#FEFEFE" fill-rule="nonzero"/><g><path d="M727.25,349.55 C740.36,350.38 755.70,346.20 761.38,355.49 L825.00,542.59 C825.62,549.16 821.41,552.71 817.04,554.50 C804.61,553.96 796.42,557.06 791.59,548.42 L778.80,509.50 L701.22,509.50 C696.25,518.97 691.48,552.49 681.55,554.50 C668.09,554.25 654.59,557.49 655.50,542.36 L717.92,357.00 C719.60,353.21 723.01,350.71 727.25,349.55 Z" fill="#033F96" fill-rule="nonzero"/><path d="M740.02,394.00 C740.58,394.00 767.61,475.79 767.41,476.85 C767.22,477.83 713.35,478.55 712.39,477.59 C711.90,477.10 714.86,467.71 725.58,435.75 C738.51,397.19 739.61,394.00 740.02,394.00 Z" fill="#FEFEFE" fill-rule="nonzero"/></g></g><g><path d="M168.75,336.60 L387.43,336.50 C407.00,339.53 418.26,351.31 422.71,369.75 L423.03,526.39 C402.10,544.85 402.24,559.20 423.00,577.65 L423.00,730.93 C421.28,752.33 408.14,764.58 389.75,768.52 L164.75,768.25 C146.49,763.08 135.24,750.84 133.95,729.75 L134.27,369.25 C138.90,351.38 149.96,339.83 168.75,336.60 Z" fill="#FEFEFE" fill-rule="nonzero"/><path d="M296.75,435.75 L297.25,461.75 L368.75,462.25 C383.55,468.42 382.26,488.83 366.46,492.50 L347.97,492.50 C340.05,530.06 323.48,560.06 302.37,584.53 C317.88,598.32 338.31,607.98 359.14,616.74 C372.02,624.73 365.95,647.33 348.56,645.00 C322.46,635.74 299.64,622.53 279.93,606.79 C260.69,621.89 238.35,635.69 213.63,645.00 C193.97,646.69 189.65,623.66 203.84,616.05 C212.56,613.71 256.83,590.06 255.50,583.88 C241.88,569.25 229.49,552.00 220.25,532.25 C216.87,514.06 238.55,505.96 248.46,519.95 C256.77,536.14 267.27,551.64 279.34,563.54 C295.81,544.38 309.43,521.35 316.13,492.52 L194.75,492.25 C179.26,487.73 179.95,465.50 195.54,462.00 L266.50,462.00 L266.50,438.16 C269.29,421.81 291.40,420.13 296.75,435.75 Z" fill="#033F96" fill-rule="nonzero"/></g><path d="M1022.99,176.75 C1021.99,176.09 1021.84,173.73 1022.04,171.96 C1022.78,172.43 1023.00,173.50 1022.99,176.75 Z" fill="#FEFEFE" fill-rule="nonzero"/><path d="M2.00,173.00 C2.00,175.28 1.79,176.07 1.05,176.54 C1.01,173.80 1.23,173.00 2.00,173.00 Z" fill="#FEFEFE" fill-rule="nonzero"/><path d="M169.22,1.96 C169.10,3.08 166.33,3.45 165.75,2.59 L169.22,1.96 Z" fill="#FEFEFE" fill-rule="nonzero"/><path d="M2.43,165.76 C3.33,166.93 2.90,168.46 1.99,169.25 L2.43,165.76 Z" fill="#FEFEFE" fill-rule="nonzero"/><path d="M868.06,5.00 C866.51,5.00 865.92,4.79 865.45,4.09 C866.99,4.02 867.58,4.23 868.06,5.00 Z" fill="#FEFEFE" fill-rule="nonzero"/><path d="M180.43,1.02 L181.06,-0.00 L184.56,-0.00 C184.08,0.77 183.15,1.01 180.43,1.02 Z" fill="#FEFEFE" fill-rule="nonzero"/><path d="M1024.00,180.00 L1024.00,183.50 C1023.23,183.50 1023.00,182.71 1023.00,180.00 L1024.00,180.00 Z" fill="#FEFEFE" fill-rule="nonzero"/><path d="M0.75,181.49 C0.86,180.79 1.79,185.40 -0.00,184.50 L-0.00,181.50 L0.75,181.49 Z" fill="#FEFEFE" fill-rule="nonzero"/><path d="M1024.00,841.00 L1024.00,844.00 L1023.29,844.13 C1023.12,844.47 1022.18,840.23 1024.00,841.00 Z" fill="#FEFEFE" fill-rule="nonzero"/><path d="M183.00,1024.00 L180.00,1024.00 L180.00,1023.00 C182.33,1023.00 183.00,1023.22 183.00,1024.00 Z" fill="#FEFEFE" fill-rule="nonzero"/><path d="M840.00,-0.00 L842.50,-0.00 L842.50,1.00 C840.56,1.00 840.00,0.78 840.00,-0.00 Z" fill="#FEFEFE" fill-rule="nonzero"/></svg>
