<svg version="1.1" xmlns="http://www.w3.org/2000/svg" viewBox="0 0 1024 1024" width="1024" height="1024"><path d="M181.50,1.00 C183.83,1.00 184.50,0.78 184.50,-0.00 L839.50,-0.00 C839.50,0.79 840.34,1.00 843.56,1.00 C865.46,2.31 883.93,8.37 900.75,15.06 C959.15,39.21 1009.12,95.01 1021.59,166.25 C1021.97,169.88 1023.19,177.37 1023.25,181.49 C1023.14,180.79 1022.21,185.40 1024.00,184.50 L1024.00,841.80 C1022.14,849.02 1022.36,856.58 1020.46,864.25 C1013.39,899.06 997.20,928.56 977.75,952.12 C947.25,988.50 902.90,1016.44 844.00,1024.00 L183.00,1024.00 C183.00,1023.22 182.33,1023.00 180.00,1023.00 C159.49,1022.16 143.50,1016.45 127.75,1010.96 C94.60,998.20 65.70,975.76 45.25,950.75 C26.15,927.29 10.57,899.45 4.10,863.97 L3.16,860.75 C1.93,856.79 0.95,848.72 0.71,844.13 C0.88,844.47 1.82,840.23 -0.00,841.00 L-0.00,183.50 C0.78,183.50 1.00,182.82 1.00,182.00 C1.00,181.18 0.78,180.50 -0.00,180.50 L-0.00,180.00 C0.58,180.00 1.04,177.42 2.04,168.54 C2.78,168.08 3.00,167.38 3.00,165.44 C6.05,143.38 14.13,125.25 22.11,107.75 C36.75,81.01 57.19,56.92 81.75,38.88 C93.43,30.21 108.75,21.08 123.25,15.09 C140.50,8.36 158.66,2.18 181.50,1.00 Z" fill="#2077FC" fill-rule="nonzero"/><g><path d="M168.25,233.09 L397.25,233.25 C413.41,237.72 423.23,247.64 427.75,263.75 L428.25,505.25 L488.00,505.51 L488.00,455.63 C488.82,449.89 494.47,445.42 500.75,448.58 L598.91,547.25 C600.56,551.35 599.94,554.45 597.87,557.70 L502.36,653.75 C497.97,658.24 489.29,655.13 488.02,648.75 L488.00,597.99 L428.25,598.25 C427.86,598.64 428.05,625.60 427.71,627.75 C425.18,643.51 410.38,657.49 394.75,659.03 L164.75,658.75 C148.40,654.20 138.10,643.84 134.50,626.89 L134.52,265.25 C138.13,247.44 149.81,235.94 168.25,233.09 Z" fill="#FEFEFD" fill-rule="nonzero"/><path d="M300.75,347.75 L301.25,373.75 L372.75,374.25 C387.55,380.42 386.26,400.83 370.46,404.50 L351.97,404.50 C344.05,442.06 327.48,472.06 306.37,496.53 C321.88,510.32 342.31,519.98 363.14,528.74 C376.02,536.73 369.95,559.33 352.56,557.00 C326.46,547.74 303.64,534.53 283.93,518.79 C264.69,533.89 242.35,547.69 217.63,557.00 C197.77,558.57 193.83,535.69 207.75,528.13 C216.53,525.65 260.84,502.11 259.50,495.88 C245.88,481.25 233.49,464.00 224.25,444.25 C220.87,426.06 242.55,417.96 252.46,431.95 C260.77,448.14 271.27,463.64 283.34,475.54 C300.15,456.47 313.02,432.72 320.60,404.52 L198.75,404.25 C183.26,399.73 183.95,377.50 199.54,374.00 L270.50,374.00 L270.50,350.16 C273.29,333.81 295.40,332.13 300.75,347.75 Z" fill="#033F96" fill-rule="nonzero"/></g><g><path d="M635.75,336.60 L854.43,336.50 C873.94,339.62 885.34,351.20 889.75,369.75 C890.17,488.86 890.17,616.15 889.75,735.25 C886.18,753.69 875.10,764.64 857.27,768.50 L634.11,768.50 C615.53,764.43 602.60,751.96 601.00,730.93 L601.00,577.64 C621.78,559.49 621.87,544.62 600.97,526.45 L601.31,369.75 C605.61,351.50 616.92,339.87 635.75,336.60 Z" fill="#FEFEFD" fill-rule="nonzero"/><g><path d="M733.75,437.55 C748.59,438.75 763.18,433.18 769.05,444.95 L831.49,630.25 C832.58,636.76 828.57,640.42 824.39,642.50 C812.26,641.93 803.46,645.18 798.60,636.47 L785.78,597.50 L708.21,597.50 L695.46,636.37 C690.90,644.88 681.98,642.08 669.96,642.50 C665.51,640.79 661.36,636.84 662.01,630.75 L725.46,443.83 C726.34,442.35 731.48,438.04 733.75,437.55 Z" fill="#033F96" fill-rule="nonzero"/><path d="M746.60,482.00 L747.36,482.00 C756.26,509.58 767.15,538.20 774.75,565.75 C770.12,566.08 719.86,566.22 719.25,565.75 C727.21,538.56 737.75,509.62 746.60,482.00 Z" fill="#FEFEFD" fill-rule="nonzero"/></g></g><path d="M3.00,165.44 C3.00,167.38 2.78,168.08 2.04,168.54 C2.01,166.62 2.22,165.92 3.00,165.44 Z" fill="#FEFEFD" fill-rule="nonzero"/><path d="M4.10,863.97 C3.24,863.99 3.04,863.28 3.16,860.75 L4.10,863.97 Z" fill="#FEFEFD" fill-rule="nonzero"/><path d="M839.50,-0.00 L842.94,0.00 L843.56,1.00 C840.34,1.00 839.50,0.79 839.50,-0.00 Z" fill="#FEFEFD" fill-rule="nonzero"/><path d="M181.50,1.00 L181.50,-0.00 L184.50,-0.00 C184.50,0.78 183.83,1.00 181.50,1.00 Z" fill="#FEFEFD" fill-rule="nonzero"/><path d="M-0.00,183.50 L-0.00,180.50 C0.78,180.50 1.00,181.18 1.00,182.00 C1.00,182.82 0.78,183.50 -0.00,183.50 Z" fill="#FEFEFD" fill-rule="nonzero"/><path d="M1023.25,181.49 L1024.00,181.50 L1024.00,184.50 C1022.21,185.40 1023.14,180.79 1023.25,181.49 Z" fill="#FEFEFD" fill-rule="nonzero"/><path d="M-0.00,844.00 L-0.00,841.00 C1.82,840.23 0.88,844.47 0.71,844.13 L-0.00,844.00 Z" fill="#FEFEFD" fill-rule="nonzero"/><path d="M183.00,1024.00 L180.00,1024.00 L180.00,1023.00 C182.33,1023.00 183.00,1023.22 183.00,1024.00 Z" fill="#FEFEFD" fill-rule="nonzero"/></svg>
