<svg version="1.1" xmlns="http://www.w3.org/2000/svg" viewBox="0 0 1024 1024" style="width: 100%; height: 100%;"><path d="M114.00,1.00 C118.42,1.00 119.50,0.80 119.50,-0.00 L905.50,-0.00 C905.50,0.78 906.65,1.00 910.59,0.99 C951.52,7.29 981.41,30.55 1001.68,59.75 C1009.62,71.90 1017.69,88.16 1021.00,105.94 C1021.00,107.88 1021.23,108.58 1022.00,109.06 L1021.97,110.00 L1022.53,114.25 L1023.02,114.99 C1023.27,116.80 1022.22,120.78 1024.00,121.06 L1024.00,903.50 C1023.21,903.50 1023.00,904.64 1022.98,909.00 C1023.02,915.11 1020.94,919.08 1019.92,924.98 C1019.21,925.00 1019.00,925.58 1019.00,927.56 C1019.23,929.75 1017.08,932.56 1017.07,933.75 C1011.57,950.59 1002.84,964.30 992.75,976.69 L992.75,976.76 L990.31,979.75 L980.25,989.78 L976.78,992.75 C961.73,1005.90 939.78,1017.87 916.01,1022.04 L913.75,1022.50 L910.00,1023.05 C905.73,1023.01 904.50,1023.22 904.50,1024.00 L119.56,1024.00 C119.08,1023.23 117.83,1023.00 114.00,1023.00 L113.06,1023.00 C112.58,1022.23 111.54,1022.01 108.45,1022.05 C86.16,1018.34 67.64,1008.40 53.25,997.50 C29.08,979.44 10.59,953.50 3.00,919.06 C3.00,916.73 2.78,915.92 2.00,915.44 L2.00,914.00 C2.00,911.33 1.78,910.42 1.00,909.94 C1.00,905.32 0.78,904.00 -0.00,904.00 L-0.00,121.00 C0.78,121.00 0.98,120.16 0.93,117.25 C0.73,114.57 2.31,111.68 2.01,109.75 C2.78,109.14 3.19,107.51 3.00,105.94 C9.54,72.15 28.56,47.24 49.75,29.24 C67.23,15.79 87.01,4.81 114.00,1.00 Z" fill="#0075FD" fill-rule="nonzero"/><g><path d="M205.25,157.62 C413.18,157.18 625.40,157.79 832.25,158.34 C861.75,164.89 879.68,183.17 884.75,214.25 C885.17,405.03 885.16,603.97 884.75,794.75 C879.23,827.74 860.20,847.19 827.75,853.21 L207.86,853.51 C173.11,851.97 146.89,826.11 144.50,791.93 L144.52,216.75 C147.94,183.01 171.05,160.38 205.25,157.62 Z" fill="#FEFEFE" fill-rule="nonzero"/><g><path d="M201.75,295.08 L829.25,295.25 C834.63,297.71 838.18,300.97 840.25,306.75 C840.67,468.19 840.67,637.81 840.25,799.25 C837.83,804.87 834.75,808.70 828.75,810.75 L205.25,811.38 C197.51,811.03 192.05,805.94 189.25,799.25 C188.83,637.65 188.83,467.85 189.25,306.25 C191.69,300.64 195.59,296.50 201.75,295.08 Z" fill="#0075FD" fill-rule="nonzero"/><path d="M525.83,312.37 C527.22,313.30 586.34,373.20 587.57,375.03 C598.33,391.07 582.83,413.02 563.26,406.93 C552.62,402.20 545.74,390.74 536.50,383.50 L536.50,725.00 C536.50,725.00 537.70,725.00 537.70,725.00 C538.59,724.91 555.71,706.33 558.25,704.64 C578.62,691.12 600.60,716.04 587.50,734.25 C586.40,735.78 526.25,795.91 526.25,795.91 C519.34,800.37 510.10,800.35 503.25,795.87 C502.94,795.66 444.06,737.43 441.96,734.75 C426.60,715.17 451.55,689.38 471.49,705.01 L491.99,725.61 C493.27,612.11 492.03,496.72 492.75,384.00 C492.75,384.00 492.18,383.96 491.80,384.00 C490.87,384.09 473.83,402.68 471.25,404.34 C450.89,417.51 426.99,393.08 443.84,372.50 C445.74,370.17 502.48,312.93 503.15,312.44 C509.51,307.78 519.53,308.14 525.83,312.37 Z" fill="#FEFEFE" fill-rule="nonzero"/></g><path d="M308.25,196.62 C354.50,195.36 354.86,261.67 308.25,260.48 C269.85,254.79 269.78,202.09 308.25,196.62 Z" fill="#FCBA03" fill-rule="nonzero"/><path d="M397.25,196.58 C441.69,197.02 442.06,260.54 396.75,260.63 C356.93,255.41 357.60,201.05 397.25,196.58 Z" fill="#27B754" fill-rule="nonzero"/><path d="M224.91,196.50 C264.88,201.19 264.79,256.37 224.38,260.64 C180.01,259.59 180.55,197.08 224.91,196.50 Z" fill="#FB3E3C" fill-rule="nonzero"/></g><path d="M1022.53,114.25 L1021.97,110.00 C1023.76,109.01 1023.01,114.33 1022.53,114.25 Z" fill="#89C0FC" fill-rule="nonzero"/><path d="M113.06,1023.00 C109.96,1023.00 108.92,1022.79 108.45,1022.05 C111.54,1022.01 112.58,1022.23 113.06,1023.00 Z" fill="#89C0FC" fill-rule="nonzero"/><path d="M2.00,914.00 C1.23,914.00 1.00,913.09 1.00,909.94 C1.78,910.42 2.00,911.33 2.00,914.00 Z" fill="#89C0FC" fill-rule="nonzero"/><path d="M3.00,919.06 C2.22,918.58 2.00,917.77 2.00,915.44 C2.78,915.92 3.00,916.73 3.00,919.06 Z" fill="#89C0FC" fill-rule="nonzero"/><path d="M3.00,105.94 C3.19,107.51 2.78,109.14 2.01,109.75 C2.00,107.28 2.23,106.42 3.00,105.94 Z" fill="#89C0FC" fill-rule="nonzero"/><path d="M1022.00,109.06 C1021.23,108.58 1021.00,107.88 1021.00,105.94 C1021.77,106.42 1022.00,107.12 1022.00,109.06 Z" fill="#89C0FC" fill-rule="nonzero"/><path d="M980.25,989.78 L976.78,992.75 L980.25,989.78 Z" fill="#89C0FC" fill-rule="nonzero"/><path d="M1019.92,924.98 C1019.98,926.50 1019.77,927.08 1019.00,927.56 C1019.00,925.58 1019.21,925.00 1019.92,924.98 Z" fill="#89C0FC" fill-rule="nonzero"/><path d="M992.75,976.76 L990.31,979.75 L992.75,976.76 Z" fill="#89C0FC" fill-rule="nonzero"/><path d="M916.01,1022.04 C916.46,1024.13 914.27,1022.46 913.75,1022.50 L916.01,1022.04 Z" fill="#89C0FC" fill-rule="nonzero"/><path d="M992.75,976.69 L992.75,976.76 L992.75,976.69 Z" fill="#89C0FC" fill-rule="nonzero"/><path d="M1024.00,115.00 L1024.00,121.06 C1022.22,120.78 1023.27,116.80 1023.02,114.99 L1024.00,115.00 Z" fill="#89C0FC" fill-rule="nonzero"/><path d="M114.00,1.00 L114.00,-0.00 L119.50,-0.00 C119.50,0.80 118.42,1.00 114.00,1.00 Z" fill="#89C0FC" fill-rule="nonzero"/><path d="M1022.98,909.00 C1023.00,904.64 1023.21,903.50 1024.00,903.50 L1024.00,909.00 L1022.98,909.00 Z" fill="#89C0FC" fill-rule="nonzero"/><path d="M910.00,1023.05 L910.00,1024.00 L904.50,1024.00 C904.50,1023.22 905.73,1023.01 910.00,1023.05 Z" fill="#89C0FC" fill-rule="nonzero"/><path d="M119.56,1024.00 L114.00,1024.00 L114.00,1023.00 C117.83,1023.00 119.08,1023.23 119.56,1024.00 Z" fill="#89C0FC" fill-rule="nonzero"/><path d="M905.50,-0.00 L909.94,-0.00 L910.59,0.99 C906.65,1.00 905.50,0.78 905.50,-0.00 Z" fill="#89C0FC" fill-rule="nonzero"/><path d="M0.93,117.25 C0.98,120.16 0.78,121.00 -0.00,121.00 L0.01,118.75 L0.93,117.25 Z" fill="#89C0FC" fill-rule="nonzero"/></svg>
