<svg version="1.1" xmlns="http://www.w3.org/2000/svg" viewBox="0 0 1024 1024" style="width: 100%; height: 100%;"><path d="M143.50,1.00 C145.83,1.00 146.50,0.78 146.50,-0.00 L878.00,-0.00 C878.00,0.78 878.68,1.00 881.06,1.00 C906.08,2.76 928.46,12.16 946.25,23.15 C981.42,45.06 1009.24,78.69 1020.00,125.94 C1020.00,127.49 1020.21,128.08 1020.95,128.54 C1021.98,132.99 1022.65,138.82 1023.05,143.99 C1023.01,146.32 1023.23,147.00 1024.00,147.00 L1024.00,877.50 C1023.23,877.50 1023.01,878.06 1023.06,880.01 L1022.61,884.75 L1021.93,887.74 L1021.93,892.25 C1007.25,956.22 966.45,999.93 907.25,1018.35 C898.17,1020.44 892.14,1023.11 881.56,1023.00 C879.58,1023.00 879.00,1023.23 879.00,1024.00 L145.50,1024.00 C145.50,1023.23 144.82,1023.01 142.50,1023.06 C94.53,1017.73 61.80,994.39 37.55,966.25 C27.90,954.72 19.14,940.81 13.11,926.75 C9.01,916.43 4.38,905.70 3.07,892.98 L2.09,889.75 L1.55,886.75 C2.60,886.16 1.88,883.97 0.96,883.77 L1.00,879.06 C1.00,875.91 0.78,875.00 -0.00,875.00 L-0.00,147.50 C0.78,147.50 1.00,146.82 1.00,144.50 L0.96,140.73 C2.16,140.63 2.43,137.37 1.56,136.75 L2.00,133.71 C2.87,133.62 3.60,131.26 2.55,130.75 C4.18,123.01 7.05,111.66 9.89,105.25 C29.06,54.44 71.16,14.95 128.94,3.00 C130.64,3.18 132.62,2.84 133.25,2.07 C135.98,2.08 139.31,0.46 143.50,1.00 Z" fill="#0073FE" fill-rule="nonzero"/><g><path d="M477.50,158.01 C676.24,178.64 804.12,403.01 690.90,600.51 L691.40,601.83 C744.63,647.90 797.04,694.96 847.63,743.75 C896.11,805.23 823.79,884.62 757.25,837.40 C708.28,787.75 658.49,735.96 609.77,684.75 L608.08,684.44 C532.02,740.60 426.21,757.85 325.75,710.87 C242.40,671.90 172.15,586.83 161.53,474.75 C144.33,293.24 294.53,138.73 477.50,158.01 Z" fill="#FEFEFE" fill-rule="nonzero"/><g><path d="M646.48,424.25 C661.90,593.59 482.44,712.28 338.75,619.82 C222.82,545.22 208.51,371.63 321.89,282.75 C455.49,181.45 632.52,270.79 646.48,424.25 Z" fill="#0073FE" fill-rule="nonzero"/><path d="M327.25,414.58 L565.34,414.50 C598.55,419.16 600.40,465.05 568.25,472.75 L326.45,473.01 C291.64,467.32 292.21,419.64 327.25,414.58 Z" fill="#FEFEFE" fill-rule="nonzero"/></g></g><path d="M133.25,2.07 C132.62,2.84 130.64,3.18 128.94,3.00 C129.42,2.23 130.39,2.02 133.25,2.07 Z" fill="#FEFEFE" fill-rule="nonzero"/><path d="M1.56,136.75 C2.43,137.37 2.16,140.63 0.96,140.73 L1.56,136.75 Z" fill="#FEFEFE" fill-rule="nonzero"/><path d="M2.55,130.75 C3.60,131.26 2.87,133.62 2.00,133.71 L2.55,130.75 Z" fill="#FEFEFE" fill-rule="nonzero"/><path d="M1.55,886.75 L0.96,883.77 C1.88,883.97 2.60,886.16 1.55,886.75 Z" fill="#FEFEFE" fill-rule="nonzero"/><path d="M3.07,892.98 C2.24,893.00 2.02,892.27 2.09,889.75 L3.07,892.98 Z" fill="#FEFEFE" fill-rule="nonzero"/><path d="M1020.95,128.54 C1020.21,128.08 1020.00,127.49 1020.00,125.94 C1020.77,126.42 1020.99,127.00 1020.95,128.54 Z" fill="#FEFEFE" fill-rule="nonzero"/><path d="M1021.93,887.74 L1022.61,884.75 C1023.53,885.35 1022.94,887.51 1021.93,887.74 Z" fill="#FEFEFE" fill-rule="nonzero"/><path d="M0.00,878.44 L-0.00,875.00 C0.78,875.00 1.00,875.91 1.00,879.06 L0.00,878.44 Z" fill="#FEFEFE" fill-rule="nonzero"/><path d="M143.50,1.00 L143.50,-0.00 L146.50,-0.00 C146.50,0.78 145.83,1.00 143.50,1.00 Z" fill="#FEFEFE" fill-rule="nonzero"/><path d="M1024.00,144.00 L1024.00,147.00 C1023.23,147.00 1023.01,146.32 1023.05,143.99 L1024.00,144.00 Z" fill="#FEFEFE" fill-rule="nonzero"/><path d="M1.00,144.50 C1.00,146.82 0.78,147.50 -0.00,147.50 L-0.00,144.50 L1.00,144.50 Z" fill="#FEFEFE" fill-rule="nonzero"/><path d="M145.50,1024.00 L142.50,1024.00 L142.50,1023.06 C144.82,1023.01 145.50,1023.23 145.50,1024.00 Z" fill="#FEFEFE" fill-rule="nonzero"/><path d="M878.00,-0.00 L880.44,0.00 L881.06,1.00 C878.68,1.00 878.00,0.78 878.00,-0.00 Z" fill="#FEFEFE" fill-rule="nonzero"/><path d="M1023.06,880.01 C1023.01,878.06 1023.23,877.50 1024.00,877.50 L1024.00,880.00 L1023.06,880.01 Z" fill="#FEFEFE" fill-rule="nonzero"/><path d="M881.56,1023.00 L880.94,1024.00 L879.00,1024.00 C879.00,1023.23 879.58,1023.00 881.56,1023.00 Z" fill="#FEFEFE" fill-rule="nonzero"/></svg>
