<svg version="1.1" xmlns="http://www.w3.org/2000/svg" viewBox="0 0 1024 1024" style="width: 100%; height: 100%;"><path d="M136.00,1.00 C137.89,1.00 138.58,0.77 139.06,0.00 L884.94,0.00 C885.42,0.78 886.11,1.00 888.00,1.00 C959.85,8.00 1014.93,64.95 1023.10,135.48 C1023.02,137.82 1023.23,138.50 1024.00,138.50 L1024.00,887.00 C1022.19,886.60 1023.30,887.92 1023.00,889.00 C1023.44,893.28 1021.97,895.97 1021.91,899.47 C1021.20,899.93 1021.00,900.62 1021.00,902.56 C1007.31,966.23 959.12,1014.19 890.56,1023.00 C888.58,1023.00 888.00,1023.23 888.00,1024.00 L136.50,1024.00 C136.50,1023.23 135.94,1023.00 134.00,1023.00 C63.29,1015.06 7.96,959.22 1.00,887.50 C1.00,885.56 0.78,885.00 -0.00,885.00 L-0.00,139.00 C0.78,139.00 1.00,138.32 1.00,136.00 L1.00,132.06 C1.77,131.58 2.00,130.89 2.00,129.00 L1.96,125.58 C3.42,125.31 3.00,123.70 2.47,122.78 C7.44,98.97 17.81,76.68 30.45,60.75 C48.31,37.15 74.10,16.78 105.75,6.89 C113.97,4.57 124.55,1.31 136.00,1.00 Z" fill="#0070FD" fill-rule="nonzero"/><g><path d="M484.75,154.04 C618.64,170.55 722.19,279.62 736.03,417.48 C743.44,497.07 722.15,561.27 692.75,609.05 L857.42,770.11 C898.48,822.50 835.11,887.63 781.65,846.98 C728.80,792.72 676.40,737.02 623.52,682.75 C438.47,824.69 203.30,709.94 162.05,511.25 C120.03,308.88 284.35,129.34 484.75,154.04 Z" fill="#FDFCFC" fill-rule="nonzero"/><g><path d="M467.75,241.52 C554.71,250.07 619.27,313.94 640.07,389.75 C678.81,530.89 562.04,669.98 421.68,652.02 C317.98,638.75 226.02,537.38 247.56,408.83 C263.09,316.17 350.79,230.02 467.75,241.52 Z" fill="#0070FD" fill-rule="nonzero"/><path d="M477.74,331.25 L478.25,414.25 L561.75,414.75 C592.70,423.36 591.58,468.53 559.75,475.25 C553.22,476.14 478.72,474.78 478.00,475.50 L477.98,552.25 C473.48,587.55 423.62,588.65 416.27,554.75 L415.96,475.66 C389.64,474.83 360.33,474.98 333.68,475.00 C301.08,468.09 301.52,421.45 333.68,414.50 L415.96,414.50 L416.29,332.25 C423.17,298.99 469.91,298.21 477.74,331.25 Z" fill="#FDFCFC" fill-rule="nonzero"/></g></g><path d="M2.00,129.00 C2.00,130.89 1.77,131.58 1.00,132.06 C1.00,129.69 1.23,129.00 2.00,129.00 Z" fill="#FDFCFC" fill-rule="nonzero"/><path d="M1021.91,899.47 C1021.98,901.39 1021.77,902.08 1021.00,902.56 C1021.00,900.62 1021.20,899.93 1021.91,899.47 Z" fill="#FDFCFC" fill-rule="nonzero"/><path d="M2.47,122.78 C3.00,123.70 3.42,125.31 1.96,125.58 L2.47,122.78 Z" fill="#FDFCFC" fill-rule="nonzero"/><path d="M1024.00,135.50 L1024.00,138.50 C1023.23,138.50 1023.02,137.82 1023.10,135.48 L1024.00,135.50 Z" fill="#FDFCFC" fill-rule="nonzero"/><path d="M1.00,136.00 C1.00,138.32 0.78,139.00 -0.00,139.00 L-0.00,136.00 L1.00,136.00 Z" fill="#FDFCFC" fill-rule="nonzero"/><path d="M136.00,1.00 L136.00,-0.00 L139.06,0.00 C138.58,0.77 137.89,1.00 136.00,1.00 Z" fill="#FDFCFC" fill-rule="nonzero"/><path d="M884.94,0.00 L888.00,-0.00 L888.00,1.00 C886.11,1.00 885.42,0.78 884.94,0.00 Z" fill="#FDFCFC" fill-rule="nonzero"/><path d="M-0.00,887.50 L-0.00,885.00 C0.78,885.00 1.00,885.56 1.00,887.50 L-0.00,887.50 Z" fill="#FDFCFC" fill-rule="nonzero"/><path d="M136.50,1024.00 L134.00,1024.00 L134.00,1023.00 C135.94,1023.00 136.50,1023.23 136.50,1024.00 Z" fill="#FDFCFC" fill-rule="nonzero"/><path d="M890.56,1023.00 L889.94,1024.00 L888.00,1024.00 C888.00,1023.23 888.58,1023.00 890.56,1023.00 Z" fill="#FDFCFC" fill-rule="nonzero"/><path d="M1023.00,889.00 C1023.30,887.92 1022.19,886.60 1024.00,887.00 L1024.00,889.00 L1023.00,889.00 Z" fill="#FDFCFC" fill-rule="nonzero"/></svg>
