<svg version="1.1" xmlns="http://www.w3.org/2000/svg" viewBox="0 0 1024 1024" style="width: 100%; height: 100%;"><path d="M160.00,1.00 C162.32,1.00 163.00,0.78 163.00,-0.00 L861.50,-0.00 C860.61,1.87 868.90,1.64 869.25,1.25 C869.99,1.83 871.11,2.00 874.25,2.01 C874.92,3.05 877.25,3.10 879.06,3.00 C945.04,17.21 991.58,60.59 1014.04,117.75 C1015.09,122.02 1017.44,126.34 1018.00,130.94 C1018.00,132.49 1018.23,133.08 1019.00,133.56 C1020.05,138.25 1021.30,145.32 1022.53,149.25 C1021.30,149.87 1022.16,152.00 1023.04,152.23 L1023.00,153.00 C1023.00,158.08 1023.22,159.50 1024.00,159.50 L1024.00,866.00 C1023.32,866.00 1023.00,867.24 1022.58,871.51 L1022.58,876.00 C1017.44,903.13 1006.46,929.18 991.80,948.75 C969.19,980.35 936.45,1006.17 893.05,1018.09 C891.07,1018.02 890.50,1018.23 890.50,1019.00 C886.41,1019.61 881.65,1021.23 878.25,1021.48 C877.59,1020.24 875.19,1021.45 874.75,1022.01 C873.05,1022.28 869.20,1021.22 868.98,1022.99 C863.50,1023.00 862.00,1023.21 862.00,1024.00 L163.00,1024.00 C163.00,1023.21 161.50,1023.00 156.02,1022.99 C155.57,1022.22 154.44,1022.00 151.00,1022.00 L150.25,1021.91 L145.41,1020.92 C73.42,1006.86 21.04,954.40 4.00,885.06 C4.19,883.49 3.78,881.86 3.01,881.25 L3.00,881.06 C3.00,878.35 2.77,877.42 1.99,876.94 C1.98,874.14 1.45,872.86 0.95,870.04 C0.99,865.36 0.78,864.00 -0.00,864.00 L-0.00,162.00 C0.78,162.00 1.01,160.50 1.06,155.01 L3.03,144.06 C3.78,143.58 4.00,142.89 4.00,141.00 C14.87,90.49 45.18,55.03 80.25,30.24 C96.86,19.15 115.68,9.93 137.94,5.00 C139.88,5.00 140.58,4.79 141.07,4.05 C142.42,3.61 143.89,2.58 146.50,3.00 C149.17,3.00 150.07,2.79 150.54,2.05 L155.75,1.47 L159.75,1.09 L160.00,1.00 Z" fill="#0072FD" fill-rule="nonzero"/><g><path d="M463.25,106.95 C614.29,121.63 731.06,241.30 750.42,386.75 C762.98,481.42 735.00,561.08 698.45,616.61 L900.75,797.31 C918.57,816.73 920.40,847.92 902.17,868.52 C898.85,872.27 867.04,902.93 863.56,905.63 C840.85,923.32 809.89,918.52 791.88,899.79 C737.40,831.87 682.21,761.42 626.80,693.50 L626.11,693.50 C545.61,756.87 425.47,785.44 307.75,735.36 C210.12,693.83 127.98,599.36 112.03,475.75 C84.77,264.42 257.06,86.90 463.25,106.95 Z" fill="#FBFBFA" fill-rule="nonzero"/><g><path d="M551.31,203.91 C716.77,293.43 733.70,532.76 576.25,643.37 C487.27,705.88 372.96,704.41 285.25,641.86 C135.05,534.74 144.58,306.03 299.38,211.08 C373.60,165.56 471.28,160.61 551.31,203.91 Z" fill="#09317B" fill-rule="nonzero"/><path d="M424.25,268.55 L479.41,268.50 C485.14,270.70 489.43,274.30 490.75,281.25 C491.17,381.52 491.16,489.98 490.75,590.25 C489.04,597.07 484.91,600.83 478.38,602.53 L423.25,602.25 C417.78,600.26 414.31,597.16 412.25,591.75 L411.75,363.25 C410.30,360.41 408.28,358.17 403.48,359.00 C399.17,359.75 356.80,385.23 350.75,385.52 C345.00,385.80 339.26,379.97 338.46,375.20 L338.75,327.75 C340.40,325.02 341.53,321.95 343.63,319.90 L418.99,270.58 L424.25,268.55 Z" fill="#FBFBFA" fill-rule="nonzero"/></g></g><path d="M156.02,1022.99 C152.13,1023.00 151.00,1022.77 151.00,1022.00 C154.44,1022.00 155.57,1022.22 156.02,1022.99 Z" fill="#09317B" fill-rule="nonzero"/><path d="M874.75,1022.01 C873.97,1023.25 871.06,1023.01 868.98,1022.99 C869.20,1021.22 873.05,1022.28 874.75,1022.01 Z" fill="#09317B" fill-rule="nonzero"/><path d="M150.54,2.05 C150.07,2.79 149.17,3.00 146.50,3.00 C146.50,2.23 147.41,2.01 150.54,2.05 Z" fill="#09317B" fill-rule="nonzero"/><path d="M879.06,3.00 C877.25,3.10 874.92,3.05 874.25,2.01 C877.50,2.00 878.58,2.23 879.06,3.00 Z" fill="#09317B" fill-rule="nonzero"/><path d="M3.00,881.06 C2.23,880.58 2.00,879.65 1.99,876.94 C2.77,877.42 3.00,878.35 3.00,881.06 Z" fill="#09317B" fill-rule="nonzero"/><path d="M150.25,1021.91 C148.71,1021.94 145.48,1022.57 145.41,1020.92 L150.25,1021.91 Z" fill="#09317B" fill-rule="nonzero"/><path d="M4.00,141.00 C4.00,142.89 3.78,143.58 3.03,144.06 C3.01,141.69 3.23,141.00 4.00,141.00 Z" fill="#09317B" fill-rule="nonzero"/><path d="M4.00,885.06 C3.22,884.58 3.00,883.72 3.01,881.25 C3.78,881.86 4.19,883.49 4.00,885.06 Z" fill="#09317B" fill-rule="nonzero"/><path d="M141.07,4.05 C140.58,4.79 139.88,5.00 137.94,5.00 C138.42,4.23 139.12,4.01 141.07,4.05 Z" fill="#09317B" fill-rule="nonzero"/><path d="M878.25,1021.48 L874.75,1022.01 C875.19,1021.45 877.59,1020.24 878.25,1021.48 Z" fill="#09317B" fill-rule="nonzero"/><path d="M1022.53,149.25 L1023.04,152.23 C1022.16,152.00 1021.30,149.87 1022.53,149.25 Z" fill="#09317B" fill-rule="nonzero"/><path d="M893.05,1018.09 C892.58,1018.80 892.00,1019.00 890.50,1019.00 C890.50,1018.23 891.07,1018.02 893.05,1018.09 Z" fill="#09317B" fill-rule="nonzero"/><path d="M159.75,1.09 L155.75,1.47 L159.75,1.09 Z" fill="#09317B" fill-rule="nonzero"/><path d="M1019.00,133.56 C1018.23,133.08 1018.00,132.49 1018.00,130.94 C1018.77,131.42 1019.00,132.01 1019.00,133.56 Z" fill="#09317B" fill-rule="nonzero"/><path d="M869.25,1.25 C868.90,1.64 860.61,1.87 861.50,-0.00 L868.44,0.00 L869.25,1.25 Z" fill="#09317B" fill-rule="nonzero"/><path d="M1.06,155.01 C1.01,160.50 0.78,162.00 -0.00,162.00 L-0.00,155.00 L1.06,155.01 Z" fill="#09317B" fill-rule="nonzero"/><path d="M163.00,1024.00 L156.00,1024.00 L156.02,1022.99 C161.50,1023.00 163.00,1023.21 163.00,1024.00 Z" fill="#09317B" fill-rule="nonzero"/><path d="M868.98,1022.99 L869.00,1024.00 L862.00,1024.00 C862.00,1023.21 863.50,1023.00 868.98,1022.99 Z" fill="#09317B" fill-rule="nonzero"/><path d="M1024.00,153.00 L1024.00,159.50 C1023.22,159.50 1023.00,158.08 1023.00,153.00 L1024.00,153.00 Z" fill="#09317B" fill-rule="nonzero"/><path d="M1022.58,871.51 C1023.00,867.24 1023.32,866.00 1024.00,866.00 L1024.00,871.50 L1022.58,871.51 Z" fill="#09317B" fill-rule="nonzero"/><path d="M0.00,869.44 L-0.00,864.00 C0.78,864.00 0.99,865.36 0.95,870.04 L0.00,869.44 Z" fill="#09317B" fill-rule="nonzero"/><path d="M160.00,1.00 L160.00,-0.00 L163.00,-0.00 C163.00,0.78 162.32,1.00 160.00,1.00 Z" fill="#09317B" fill-rule="nonzero"/></svg>
