<svg version="1.1" xmlns="http://www.w3.org/2000/svg" viewBox="0 0 1024 1024" style="width: 100%; height: 100%;"><path d="M123.50,0.98 C126.21,0.99 127.00,0.78 127.00,-0.00 L898.00,-0.00 C898.00,0.78 898.57,0.99 900.54,0.95 C965.62,9.69 1014.18,59.43 1022.96,124.51 C1022.99,126.83 1023.23,127.50 1024.00,127.50 L1024.00,897.50 C1023.23,897.50 1023.00,897.95 1023.01,899.50 L1021.92,908.48 C1021.21,908.93 1021.01,909.51 1021.05,911.04 L1020.61,913.25 L1019.93,916.25 C1010.41,956.17 983.11,988.49 951.62,1006.25 C936.85,1014.31 919.80,1021.07 900.50,1023.03 C898.56,1023.01 898.00,1023.23 898.00,1024.00 L126.00,1024.00 C126.00,1023.23 125.31,1023.01 122.95,1023.04 C59.03,1014.49 8.14,963.64 1.00,898.00 C1.00,896.06 0.78,895.50 -0.00,895.50 L-0.00,127.50 C1.83,127.92 0.69,126.46 1.01,125.50 L2.01,115.75 C2.66,115.23 3.43,113.23 2.84,111.96 C16.81,53.73 61.13,9.22 123.50,0.98 Z" fill="#0070FD" fill-rule="nonzero"/><g><path d="M968.03,333.50 L968.03,747.75 C963.54,782.48 939.08,807.72 902.75,810.45 L116.75,810.23 C82.58,806.43 57.70,778.64 55.50,742.76 C55.87,607.76 54.76,468.36 56.05,333.51 L968.03,333.50 Z" fill="#FEFEFD" fill-rule="nonzero"/><path d="M249.00,475.11 L249.00,525.50 L773.97,525.50 L774.25,472.75 C778.49,463.15 787.24,459.44 796.75,465.30 L904.75,549.48 C909.97,554.41 912.76,563.06 906.78,570.61 L796.75,656.65 C787.36,662.51 777.95,657.44 774.25,648.75 L773.96,596.50 L249.03,596.50 L248.75,648.75 C244.53,657.65 236.30,662.46 226.25,656.58 L116.75,571.05 C111.15,564.02 111.75,556.02 117.67,549.90 L226.75,464.79 C236.43,458.95 246.96,464.91 249.00,475.11 Z" fill="#0070FD" fill-rule="nonzero"/><g><path d="M56.05,333.51 L56.05,265.75 C60.32,231.30 83.56,208.66 117.72,204.00 L905.75,204.01 C940.68,208.76 960.70,229.29 967.84,262.25 L968.03,333.50 L56.05,333.51 Z" fill="#1D3045" fill-rule="nonzero"/><path d="M326.39,240.50 C357.80,247.42 357.73,291.27 325.75,297.49 C281.82,300.70 281.55,236.87 326.39,240.50 Z" fill="#7DC047" fill-rule="nonzero"/><path d="M259.48,266.75 C259.83,304.25 210.28,308.38 202.38,274.25 C198.13,233.25 254.47,228.14 259.48,266.75 Z" fill="#FCCA24" fill-rule="nonzero"/><path d="M147.25,240.83 C177.64,249.62 175.58,291.69 144.61,297.50 C98.92,299.86 102.51,234.42 147.25,240.83 Z" fill="#F75040" fill-rule="nonzero"/></g></g><path d="M2.84,111.96 C3.43,113.23 2.66,115.23 2.01,115.75 C1.92,114.41 1.90,111.77 2.84,111.96 Z" fill="#FEFEFD" fill-rule="nonzero"/><path d="M1021.92,908.48 C1021.98,910.00 1021.79,910.58 1021.05,911.04 C1021.01,909.51 1021.21,908.93 1021.92,908.48 Z" fill="#FEFEFD" fill-rule="nonzero"/><path d="M1019.93,916.25 L1020.61,913.25 C1021.54,913.86 1020.93,915.99 1019.93,916.25 Z" fill="#FEFEFD" fill-rule="nonzero"/><path d="M123.50,0.98 L123.50,-0.00 L127.00,-0.00 C127.00,0.78 126.21,0.99 123.50,0.98 Z" fill="#FEFEFD" fill-rule="nonzero"/><path d="M1024.00,124.50 L1024.00,127.50 C1023.23,127.50 1022.99,126.83 1022.96,124.51 L1024.00,124.50 Z" fill="#FEFEFD" fill-rule="nonzero"/><path d="M126.00,1024.00 L123.56,1024.00 L122.95,1023.04 C125.31,1023.01 126.00,1023.23 126.00,1024.00 Z" fill="#FEFEFD" fill-rule="nonzero"/><path d="M-0.00,898.00 L-0.00,895.50 C0.78,895.50 1.00,896.06 1.00,898.00 L-0.00,898.00 Z" fill="#FEFEFD" fill-rule="nonzero"/><path d="M900.50,1023.03 L900.50,1024.00 L898.00,1024.00 C898.00,1023.23 898.56,1023.01 900.50,1023.03 Z" fill="#FEFEFD" fill-rule="nonzero"/><path d="M898.00,-0.00 L899.94,0.00 L900.54,0.95 C898.57,0.99 898.00,0.78 898.00,-0.00 Z" fill="#FEFEFD" fill-rule="nonzero"/><path d="M1.01,125.50 C0.69,126.46 1.83,127.92 -0.00,127.50 L-0.00,125.50 L1.01,125.50 Z" fill="#FEFEFD" fill-rule="nonzero"/><path d="M1023.01,899.50 C1023.00,897.95 1023.23,897.50 1024.00,897.50 L1024.00,899.50 L1023.01,899.50 Z" fill="#FEFEFD" fill-rule="nonzero"/></svg>
