<svg version="1.1" xmlns="http://www.w3.org/2000/svg" viewBox="0 0 1024 1024" style="width: 100%; height: 100%;"><path d="M102.49,0.93 C104.44,0.98 105.00,0.78 105.00,-0.00 L919.50,-0.00 C919.50,0.78 920.06,1.00 922.00,1.00 C944.79,3.16 963.74,13.07 978.67,24.75 C1000.18,41.93 1018.35,66.81 1023.04,101.99 C1023.01,104.32 1023.23,105.00 1024.00,105.00 L1024.00,921.92 C1020.61,937.31 1015.61,954.90 1007.25,967.17 C992.49,991.31 968.73,1011.77 937.06,1020.00 C935.51,1020.00 934.92,1020.23 934.44,1021.00 L933.00,1021.00 C931.50,1021.00 930.92,1021.23 930.44,1022.00 L929.24,1021.93 L926.25,1022.60 L922.01,1023.06 C920.06,1023.01 919.50,1023.23 919.50,1024.00 L105.00,1024.00 C105.00,1023.23 104.44,1023.00 102.50,1023.00 C93.78,1022.71 85.59,1020.09 79.75,1018.10 C45.63,1006.06 19.21,980.11 7.07,947.25 C3.48,939.43 2.18,928.90 0.00,919.83 L-0.00,105.00 C0.78,105.00 0.99,104.55 0.95,102.99 L2.03,94.75 C2.70,94.16 3.28,92.47 2.95,90.96 C9.75,60.81 26.44,39.16 47.50,23.00 C59.51,13.98 73.39,6.42 91.00,3.00 C92.50,3.00 93.08,2.78 93.54,2.04 L102.49,0.93 Z" fill="#1E80FB" fill-rule="nonzero"/><g><path d="M128.25,809.67 L128.33,328.50 L128.33,183.75 C132.90,155.93 149.50,138.91 177.25,134.51 L847.30,134.50 C874.64,138.97 891.06,155.82 895.50,183.20 L895.48,812.25 C891.02,840.51 872.52,860.56 841.25,861.97 L183.25,861.98 C151.68,861.09 130.63,839.43 128.25,809.67 Z" fill="#FEFEFE" fill-rule="nonzero"/><g><path d="M161.50,245.50 L862.50,245.50 L862.50,800.00 L161.50,800.00 L161.50,245.50 Z" fill="#72BCFB" fill-rule="nonzero"/><path d="M349.95,643.22 L275.75,720.60 L275.43,722.00 C275.43,722.00 292.97,722.85 293.75,722.98 C323.21,727.84 322.02,765.61 297.25,770.25 C295.96,770.49 203.20,771.14 198.75,770.56 C194.88,770.05 190.42,766.42 189.25,762.25 L188.98,663.83 C191.68,636.07 229.64,636.12 235.08,661.25 C235.23,661.93 236.50,680.00 236.50,680.00 C262.05,655.27 285.51,628.41 310.75,603.39 C330.35,588.60 364.86,621.52 349.95,643.22 Z" fill="#1B2D4B" fill-rule="nonzero"/><path d="M714.84,604.75 L786.94,680.00 C787.33,679.39 788.12,664.62 788.53,662.58 C793.99,635.42 831.32,636.60 834.50,662.21 C834.71,663.93 834.75,758.89 834.50,760.63 C833.85,765.21 829.52,769.91 825.25,770.54 L726.75,770.25 C700.75,764.29 702.52,728.65 727.75,723.55 C729.59,723.18 748.50,721.87 748.50,721.87 L748.50,720.92 L675.25,644.92 C669.46,638.67 667.88,626.62 673.59,617.87 C683.70,606.33 695.78,591.34 714.84,604.75 Z" fill="#1B2D4B" fill-rule="nonzero"/><path d="M197.75,275.96 C197.75,275.96 293.54,276.21 296.68,276.60 C321.27,279.65 321.95,315.64 299.06,322.05 C292.27,323.75 282.06,323.16 275.33,325.01 L350.37,400.26 C368.48,420.76 334.33,456.75 312.77,440.94 C288.32,416.39 262.75,389.33 237.62,364.96 C237.05,365.84 236.38,382.44 236.04,384.25 C230.92,412.05 192.77,409.56 189.50,385.40 C189.27,383.66 188.72,287.06 188.84,286.25 C189.49,281.66 193.62,276.79 197.75,275.96 Z" fill="#1B2D4B" fill-rule="nonzero"/><path d="M825.25,276.01 C830.22,276.85 832.81,280.06 834.75,284.25 C835.58,315.52 834.05,350.64 834.44,383.75 C831.49,410.53 791.86,412.75 787.50,382.34 C787.19,380.16 787.00,366.06 786.32,365.00 C761.16,389.29 735.44,417.02 710.75,441.41 C689.86,455.67 657.08,422.23 672.62,401.75 L747.50,326.16 C747.52,326.05 747.50,324.56 747.50,324.56 C747.12,324.18 731.08,323.32 728.96,322.93 C701.46,317.99 701.96,281.82 725.25,276.77 C756.54,276.46 792.96,275.79 825.25,276.01 Z" fill="#1B2D4B" fill-rule="nonzero"/></g></g><path d="M128.33,328.50 L128.25,809.67 L128.33,328.50 Z" fill="#72BCFB" fill-rule="nonzero"/><path d="M2.95,90.96 C3.28,92.47 2.70,94.16 2.03,94.75 C2.01,92.28 2.21,91.42 2.95,90.96 Z" fill="#72BCFB" fill-rule="nonzero"/><path d="M93.54,2.04 C93.08,2.78 92.50,3.00 91.00,3.00 C91.00,2.23 91.57,2.01 93.54,2.04 Z" fill="#72BCFB" fill-rule="nonzero"/><path d="M933.00,1021.00 C933.00,1021.77 932.42,1022.00 930.44,1022.00 C930.92,1021.23 931.50,1021.00 933.00,1021.00 Z" fill="#72BCFB" fill-rule="nonzero"/><path d="M937.06,1020.00 C936.58,1020.77 935.99,1021.00 934.44,1021.00 C934.92,1020.23 935.51,1020.00 937.06,1020.00 Z" fill="#72BCFB" fill-rule="nonzero"/><path d="M929.24,1021.93 C929.01,1022.94 926.85,1023.54 926.25,1022.60 L929.24,1021.93 Z" fill="#72BCFB" fill-rule="nonzero"/><path d="M1024.00,102.00 L1024.00,105.00 C1023.23,105.00 1023.01,104.32 1023.04,101.99 L1024.00,102.00 Z" fill="#72BCFB" fill-rule="nonzero"/><path d="M102.49,0.93 L102.50,-0.00 L105.00,-0.00 C105.00,0.78 104.44,0.98 102.49,0.93 Z" fill="#72BCFB" fill-rule="nonzero"/><path d="M919.50,-0.00 L922.00,-0.00 L922.00,1.00 C920.06,1.00 919.50,0.78 919.50,-0.00 Z" fill="#72BCFB" fill-rule="nonzero"/><path d="M105.00,1024.00 L102.50,1024.00 L102.50,1023.00 C104.44,1023.00 105.00,1023.23 105.00,1024.00 Z" fill="#72BCFB" fill-rule="nonzero"/><path d="M922.01,1023.06 L922.00,1024.00 L919.50,1024.00 C919.50,1023.23 920.06,1023.01 922.01,1023.06 Z" fill="#72BCFB" fill-rule="nonzero"/><path d="M0.95,102.99 C0.99,104.55 0.78,105.00 -0.00,105.00 L-0.00,103.00 L0.95,102.99 Z" fill="#72BCFB" fill-rule="nonzero"/></svg>
